<?xml version="1.0" standalone="no"?>
<!DOCTYPE svg PUBLIC "-//W3C//DTD SVG 20010904//EN"
 "http://www.w3.org/TR/2001/REC-SVG-20010904/DTD/svg10.dtd">
<svg version="1.0" xmlns="http://www.w3.org/2000/svg"
 width="883.000000pt" height="883.000000pt" viewBox="0 0 883.000000 883.000000"
 preserveAspectRatio="xMidYMid meet">
<metadata>
Created by potrace 1.11, written by Peter Selinger 2001-2013
</metadata>
<g transform="translate(0.000000,883.000000) scale(0.100000,-0.100000)"
fill="#000000" stroke="none">
<path d="M3970 6553 c-1404 -81 -2649 -491 -3220 -1063 -52 -52 -119 -130
-148 -172 l-53 -78 143 0 143 0 42 68 c310 504 1403 908 2748 1018 96 8 91 -2
-20 -41 -109 -37 -281 -121 -390 -190 -251 -158 -464 -363 -620 -596 -53 -79
-145 -239 -145 -252 0 -3 240 -3 532 0 l532 6 84 64 c107 81 298 175 424 207
387 99 811 14 1104 -222 l60 -49 538 -6 537 -6 -42 77 c-227 417 -554 719
-997 918 l-97 44 55 0 c167 0 723 -121 1057 -229 300 -98 689 -275 921 -421
125 -78 318 -223 427 -319 l80 -71 243 0 244 0 -43 51 c-23 27 -87 93 -143
144 -695 647 -1742 1028 -3061 1115 -135 9 -797 11 -935 3z"/>
<path d="M3000 4990 l0 -100 125 0 125 0 0 100 0 100 -125 0 -125 0 0 -100z"/>
<path d="M530 4470 l0 -610 130 0 130 0 1 298 0 297 87 -297 87 -298 125 0
125 0 87 298 87 297 0 -297 1 -298 125 0 125 0 0 610 0 610 -160 0 -159 0 -10
-37 c-77 -292 -213 -791 -217 -803 -6 -14 -35 87 -185 648 l-52 192 -164 0
-163 0 0 -610z"/>
<path d="M7237 5060 c-76 -24 -130 -60 -167 -112 -59 -80 -60 -96 -60 -615 l0
-473 120 0 120 0 0 360 0 360 120 0 120 0 0 105 0 105 -110 0 c-60 0 -110 4
-110 8 0 32 117 82 192 82 l28 0 0 100 0 100 -97 -1 c-67 0 -117 -6 -156 -19z"/>
<path d="M7702 4582 l3 -498 30 -59 c54 -105 150 -152 338 -162 l107 -6 0 107
0 106 -47 0 c-68 0 -122 18 -155 50 l-28 28 0 211 0 211 115 0 115 0 0 105 0
105 -115 0 -115 0 0 150 0 150 -125 0 -126 0 3 -498z"/>
<path d="M1910 4673 l0 -102 270 -3 270 -3 26 -26 c18 -18 28 -41 31 -73 l6
-46 -205 0 c-283 0 -364 -24 -425 -127 -26 -44 -28 -56 -28 -148 0 -108 11
-141 64 -198 70 -76 136 -87 528 -87 l313 0 0 333 c0 186 -4 347 -10 367 -19
69 -63 123 -126 157 -84 45 -145 52 -446 56 l-268 3 0 -103z m600 -528 l0 -75
-186 0 c-102 0 -194 4 -204 10 -22 12 -33 51 -24 86 11 45 50 53 242 54 l172
0 0 -75z"/>
<path d="M3000 4320 l0 -460 125 0 125 0 0 460 0 460 -125 0 -125 0 0 -460z"/>
<path d="M3490 4320 l0 -460 125 0 125 0 0 303 c0 339 3 356 70 390 30 15 57
17 178 15 144 -3 144 -3 168 -31 l24 -28 0 -325 0 -324 125 0 125 0 0 343 c0
373 -4 406 -55 473 -36 47 -111 83 -198 94 -39 5 -210 10 -379 10 l-308 0 0
-460z"/>
<path d="M4902 4769 c-97 -16 -175 -68 -215 -144 -17 -32 -21 -58 -22 -130 0
-109 25 -170 88 -216 69 -50 123 -61 327 -66 102 -2 200 -6 218 -9 66 -10 81
-89 22 -119 -24 -12 -80 -15 -330 -15 l-300 0 0 -105 0 -105 308 0 c382 0 451
12 526 86 48 48 69 102 74 187 6 99 -13 152 -73 205 -71 63 -120 74 -350 79
-110 2 -213 9 -228 15 -50 19 -61 75 -22 113 l24 25 296 0 295 0 0 105 0 105
-292 -1 c-161 -1 -317 -5 -346 -10z"/>
<path d="M6091 4770 c-124 -18 -213 -84 -242 -179 -7 -23 -9 -130 -7 -291 3
-241 4 -257 25 -297 28 -51 83 -97 142 -119 60 -22 415 -32 520 -14 98 16 165
59 205 130 l31 55 3 254 3 254 -30 62 c-35 70 -79 107 -158 132 -57 18 -392
27 -492 13z m368 -211 c54 -19 61 -47 61 -239 0 -252 -2 -253 -235 -248 -147
3 -147 3 -171 31 -23 27 -24 32 -24 207 0 198 6 225 55 246 38 17 269 19 314
3z"/>
<path d="M561 3609 c12 -18 75 -84 138 -148 693 -697 1783 -1102 3181 -1182
227 -13 814 -7 1020 10 1208 103 2181 401 2822 866 120 87 314 283 381 386 32
47 57 89 57 93 0 3 -65 6 -145 6 l-145 0 -15 -36 c-30 -73 -107 -174 -203
-265 -441 -424 -1417 -737 -2599 -834 -46 -4 -83 -3 -83 2 0 4 45 24 101 42
120 41 302 128 417 199 240 149 466 366 623 598 45 68 159 272 159 287 0 3
-235 3 -522 0 l-522 -6 -71 -59 c-182 -154 -397 -247 -640 -279 -117 -15 -334
-6 -445 20 -198 45 -397 146 -536 272 l-54 49 -293 0 c-160 0 -397 3 -525 7
l-234 6 42 -83 c217 -432 601 -785 1051 -967 114 -46 144 -64 97 -57 -13 2
-90 13 -173 24 -308 44 -641 120 -937 216 -564 183 -1023 437 -1388 768 l-105
95 -238 1 -238 0 22 -31z"/>
</g>
</svg>
