<?xml version="1.0" standalone="no"?>
<!DOCTYPE svg PUBLIC "-//W3C//DTD SVG 20010904//EN"
 "http://www.w3.org/TR/2001/REC-SVG-20010904/DTD/svg10.dtd">
<svg version="1.0" xmlns="http://www.w3.org/2000/svg"
 width="515.000000pt" height="515.000000pt" viewBox="0 0 515.000000 515.000000"
 preserveAspectRatio="xMidYMid meet">
<metadata>
Created by potrace 1.11, written by Peter Selinger 2001-2013
</metadata>
<g transform="translate(0.000000,515.000000) scale(0.100000,-0.100000)"
fill="#000000" stroke="none">
<path d="M1605 4240 c-1 -3 -3 -87 -4 -187 l-2 -183 26 0 25 0 2 168 c1 92 3
146 5 120 l4 -48 50 0 c47 0 49 1 50 28 l1 27 7 -25 c7 -24 10 -25 104 -27
l97 -3 0 40 c0 22 5 40 10 40 7 0 8 -149 4 -460 l-7 -460 194 0 c107 0 419 -3
694 -6 l500 -6 26 44 c15 23 53 84 85 135 33 50 81 126 107 168 l49 77 29 -62
c16 -34 26 -67 22 -72 -4 -7 -1 -8 7 -3 10 6 12 2 8 -18 -3 -14 -1 -25 5 -24
7 1 197 -384 198 -400 0 -2 16 -37 35 -79 32 -68 38 -75 62 -73 15 2 32 0 38
-4 7 -4 11 -1 10 6 -1 17 77 227 85 227 9 0 79 -191 73 -201 -2 -5 7 -11 21
-15 l25 -6 0 -339 0 -338 49 4 c33 3 51 0 54 -8 3 -7 35 -84 72 -172 37 -88
68 -170 69 -182 0 -12 3 -19 5 -17 3 2 15 -19 27 -48 21 -50 22 -72 29 -446 7
-380 8 -393 27 -390 18 3 19 16 18 397 0 248 -4 400 -11 412 -5 11 -7 25 -3
31 4 6 3 8 -2 5 -6 -3 -21 22 -34 56 -14 34 -57 139 -96 232 l-71 170 -47 3
-46 3 0 305 c0 264 2 304 15 304 10 0 15 10 15 33 0 31 -2 33 -28 29 -35 -5
-42 4 -77 98 -15 41 -39 101 -52 133 -13 32 -21 62 -18 67 3 6 0 7 -8 4 -8 -3
-41 -72 -72 -155 -32 -82 -60 -149 -62 -149 -2 0 -19 33 -37 73 -18 39 -54
116 -80 170 -25 54 -46 99 -46 101 0 2 -30 66 -66 142 -122 257 -114 228 -114
390 l0 144 -25 0 -25 0 0 -149 c0 -83 -4 -152 -9 -155 -5 -3 -28 -38 -52 -78
l-44 -73 -5 90 c-4 71 -8 90 -20 90 -12 0 -16 -23 -20 -131 -5 -134 -11 -154
-55 -186 -5 -4 -6 -8 -2 -8 4 0 3 -9 -3 -20 -6 -11 -15 -18 -20 -15 -6 3 -8 0
-5 -7 3 -7 -5 -26 -18 -41 l-23 -29 -359 1 c-198 1 -492 4 -654 8 l-293 6 3
459 4 458 -52 0 c-51 0 -59 -5 -54 -34 1 -5 -4 -4 -12 3 -11 8 -41 10 -106 5
-87 -7 -90 -8 -94 -33 -3 -17 -5 -12 -6 16 l-1 41 -51 4 c-28 1 -52 1 -54 -2z"/>
<path d="M1011 3565 c-24 -8 -49 -22 -57 -32 -11 -14 -13 -104 -14 -455 0
-382 -2 -438 -15 -438 -54 0 -203 -72 -281 -136 -23 -18 -45 -30 -49 -26 -5 4
-5 2 -1 -5 3 -6 2 -15 -4 -18 -21 -13 -93 -119 -121 -179 -76 -162 -90 -360
-36 -515 15 -41 23 -79 20 -85 -3 -6 -2 -8 2 -3 5 4 20 -12 33 -35 40 -70 93
-129 139 -158 23 -15 41 -29 38 -31 -2 -3 4 -5 13 -6 9 -1 42 -11 73 -22 46
-16 94 -25 182 -30 8 -1 10 -252 1 -275 -6 -16 -44 -22 -57 -10 -3 3 -1 17 4
31 7 20 5 32 -8 52 -10 14 -17 29 -16 32 4 12 -99 -9 -108 -22 -16 -25 -11
-105 8 -121 78 -68 272 -36 322 52 18 33 21 54 21 164 0 112 2 127 18 132 63
20 171 73 217 105 137 99 199 308 149 503 -18 71 -73 184 -114 237 -16 20 -26
40 -22 44 4 5 1 5 -5 1 -7 -4 -27 4 -45 17 -43 31 -90 47 -144 47 l-44 0 0
124 c0 74 4 127 10 131 6 4 8 11 4 16 -3 6 3 13 15 16 12 3 21 9 21 13 0 5 9
11 19 15 11 3 48 27 83 53 l64 48 36 -27 c21 -14 34 -30 30 -34 -4 -5 -2 -5 4
-2 6 3 36 -7 67 -23 31 -16 74 -34 97 -41 22 -7 40 -16 40 -20 0 -5 7 -5 17
-2 12 5 14 3 8 -7 -5 -9 -4 -11 3 -6 6 4 37 -1 69 -11 32 -9 60 -17 63 -18 3
0 26 -8 53 -18 l47 -19 0 -251 c0 -230 -1 -250 -16 -229 -8 12 -21 22 -27 22
-7 0 -6 -4 3 -10 26 -17 -1 -11 -32 8 l-29 17 -32 -35 c-17 -19 -36 -34 -42
-32 -5 2 -7 0 -3 -3 4 -4 -4 -22 -18 -40 -23 -30 -23 -33 -7 -40 10 -5 27 -10
38 -12 11 -2 32 -8 47 -14 15 -6 48 -9 73 -7 l46 5 -2 -56 c-1 -31 -1 -63 0
-72 2 -26 49 -51 112 -58 54 -7 58 -6 68 16 6 13 11 71 11 128 0 79 3 105 13
105 7 0 38 24 69 53 72 66 148 205 148 270 l0 42 29 -33 c27 -30 34 -33 83
-31 41 2 57 8 75 27 13 14 23 31 23 39 0 8 4 11 10 8 5 -3 7 0 4 9 -3 8 3 23
14 34 11 11 20 22 19 24 -1 2 2 0 6 -3 5 -3 11 -146 14 -317 l6 -311 39 -16
c47 -18 134 -20 141 -2 2 6 1 77 -4 157 -22 376 -26 497 -22 651 5 152 4 168
-15 205 -11 21 -31 48 -44 60 -27 24 -99 32 -116 12 -5 -7 -43 -78 -83 -158
-40 -80 -76 -147 -81 -148 -4 -2 -5 -8 -2 -14 4 -6 -3 -5 -15 2 -12 6 -19 15
-16 21 4 5 2 8 -5 7 -6 -2 -18 10 -28 26 -9 16 -28 40 -42 55 -35 38 -56 71
-52 84 2 7 1 9 -3 5 -4 -3 -22 11 -42 33 -55 61 -93 80 -176 86 -44 3 -88 1
-108 -6 l-34 -11 3 -66 c4 -62 2 -66 -15 -59 -10 4 -76 27 -148 52 -71 25
-134 49 -139 54 -6 5 -18 9 -28 9 -9 0 -22 9 -28 20 -6 11 -15 18 -19 15 -5
-3 -11 2 -14 9 -5 13 61 109 86 127 5 3 8 9 8 13 -3 20 0 26 11 20 6 -4 8 -3
5 4 -4 5 -4 17 -1 25 10 27 85 13 148 -27 45 -29 85 -72 78 -83 -7 -10 0 -23
8 -18 6 3 10 1 10 -5 0 -7 8 -9 21 -5 24 8 111 64 120 78 15 22 -114 167 -149
167 -7 0 -11 4 -8 8 2 4 -3 8 -12 9 -9 1 -37 7 -62 14 -25 7 -61 16 -81 21
-33 7 -37 12 -42 48 -3 21 -15 54 -28 71 -13 19 -17 29 -8 25 10 -5 10 -4 -2
6 -152 129 -241 167 -414 173 -70 3 -113 0 -144 -10z m273 -106 c58 -16 119
-57 112 -75 -3 -8 -2 -12 4 -9 5 3 16 -5 24 -17 17 -27 33 -110 20 -107 -16 5
-78 -13 -116 -32 -21 -11 -38 -17 -38 -13 0 3 -15 -12 -34 -35 -18 -22 -37
-37 -40 -33 -4 3 -4 -1 0 -11 3 -9 1 -17 -5 -17 -20 0 -7 -141 18 -191 l23
-47 -40 -36 c-22 -20 -52 -46 -66 -57 l-26 -20 0 349 c0 192 3 352 7 355 10
11 114 8 157 -4z m126 -374 c0 -18 -33 -65 -45 -65 -20 0 -19 6 6 41 18 26 39
38 39 24z m-471 -619 l0 -115 -63 -29 c-116 -54 -174 -127 -195 -248 -20 -114
21 -197 122 -245 34 -16 67 -29 73 -29 7 0 23 -15 38 -34 25 -33 26 -41 26
-149 0 -62 -2 -116 -5 -119 -9 -8 -125 23 -125 34 0 5 -5 6 -10 3 -12 -7 -80
32 -80 46 0 6 -4 8 -9 5 -13 -9 -86 75 -115 132 -56 110 -74 287 -42 410 21
79 46 133 59 125 6 -3 7 -1 3 6 -17 27 157 233 183 216 7 -3 10 -1 9 6 -2 9
114 99 129 99 1 0 2 -51 2 -114z m1146 -73 c-2 -8 0 -11 5 -8 16 10 50 -71 50
-119 0 -58 -10 -82 -54 -131 l-35 -40 -1 174 0 174 20 -18 c12 -10 18 -25 15
-32z m-1166 -436 c-13 -18 -24 -34 -25 -36 -2 -2 -23 7 -48 18 -55 27 -71 66
-63 149 8 75 49 140 107 170 l45 22 3 -145 c2 -137 1 -148 -19 -178z m246 295
c28 -16 49 -33 48 -39 -1 -6 5 -10 14 -9 9 0 23 -10 30 -24 7 -14 13 -20 13
-15 0 6 9 -3 20 -20 11 -16 18 -36 15 -43 -3 -7 -1 -11 4 -8 13 8 30 -38 43
-115 14 -78 0 -207 -29 -282 -37 -95 -136 -187 -202 -187 -20 0 -21 5 -21 94
0 95 0 95 30 113 17 9 30 21 30 26 0 4 4 6 8 3 5 -3 9 0 10 7 0 7 8 32 18 57
14 38 15 52 5 88 -11 41 -70 112 -92 112 -5 0 -9 60 -9 135 0 74 3 135 8 135
4 0 30 -13 57 -28z"/>
<path d="M3233 2582 c-25 -2 -33 -8 -33 -23 0 -14 7 -19 25 -19 l25 0 0 -185
c0 -179 -1 -185 -20 -185 -23 0 -39 -28 -22 -39 5 -3 41 -6 79 -6 61 0 68 2
68 20 0 13 -8 21 -22 23 -23 3 -23 4 -23 188 l0 184 26 0 c20 0 25 4 22 21 -2
18 -10 22 -48 23 -25 0 -60 0 -77 -2z"/>
<path d="M3669 2394 c-26 -39 -29 -48 -17 -55 10 -6 15 -28 17 -71 3 -111 9
-127 46 -134 51 -9 75 2 75 37 0 16 -5 29 -11 29 -5 0 -7 5 -3 12 4 7 3 8 -5
4 -6 -4 -9 -12 -6 -17 4 -5 -4 -7 -17 -6 -21 4 -23 10 -26 70 -2 55 0 67 13
68 8 1 21 2 28 3 6 0 12 14 12 31 0 23 -4 29 -17 27 -12 -2 -18 4 -18 15 0 15
-2 16 -10 3 -8 -12 -10 -11 -10 8 0 34 -16 27 -51 -24z"/>
<path d="M3525 2400 c4 -6 0 -13 -9 -16 -8 -3 -19 -19 -25 -36 -13 -37 9 -79
59 -117 29 -20 30 -25 17 -38 -13 -13 -18 -13 -41 2 -31 21 -33 19 -38 -20 -3
-27 0 -31 35 -39 49 -12 89 2 101 35 13 39 2 69 -45 117 -46 46 -45 62 3 44
36 -13 49 -3 41 29 -3 10 -6 19 -7 19 0 0 -23 7 -49 15 -26 8 -45 10 -42 5z"/>
<path d="M3806 2181 c2 -49 4 -52 27 -49 42 6 33 70 -11 73 -13 1 -17 -5 -16
-24z"/>
<path d="M2177 1442 c-16 -3 -17 -16 -15 -130 l3 -127 25 -1 c25 -1 25 -1 22
78 -3 66 -1 78 12 78 10 0 19 -11 22 -28 8 -37 35 -38 59 -1 34 50 45 38 45
-51 0 -73 2 -80 20 -80 24 0 22 -7 24 143 l1 117 -26 0 c-23 0 -74 -42 -63
-53 2 -2 -5 -12 -15 -21 -19 -17 -20 -17 -30 2 -6 11 -7 23 -3 27 4 5 1 5 -5
1 -8 -4 -13 -2 -13 6 -1 18 -42 45 -63 40z"/>
<path d="M2500 1423 c-6 -15 -16 -39 -23 -53 -8 -14 -20 -44 -27 -67 -7 -24
-16 -43 -20 -43 -4 0 -7 -6 -7 -12 0 -7 -4 -26 -8 -41 -7 -27 -6 -28 21 -25
16 2 29 8 29 13 1 6 4 22 8 38 7 24 12 27 53 27 44 0 46 -2 62 -40 17 -39 52
-57 52 -25 0 13 -70 196 -89 235 -14 27 -40 23 -51 -7z m43 -93 c6 -23 -7 -34
-28 -26 -12 4 -13 10 -3 30 12 28 23 27 31 -4z"/>
<path d="M2834 1439 c-7 -12 -6 -238 1 -250 16 -25 180 3 170 28 -2 7 1 13 8
13 8 0 9 2 1 8 -6 4 -10 15 -9 24 2 9 -3 22 -11 29 -9 7 -14 31 -14 64 0 67
-21 87 -90 91 -28 1 -53 -2 -56 -7z m97 -55 c11 -14 10 -18 -6 -30 -30 -22
-45 -17 -45 16 0 23 5 30 19 30 10 0 25 -7 32 -16z m17 -106 c19 -19 -4 -48
-39 -48 -26 0 -29 3 -27 30 2 25 7 30 28 30 14 0 31 -5 38 -12z"/>
<path d="M3094 1441 c-11 -5 -33 -23 -47 -41 -22 -25 -27 -42 -27 -84 0 -30 6
-61 16 -74 8 -12 12 -22 7 -22 -4 0 12 -9 36 -20 95 -44 164 -13 199 88 9 27
9 39 -4 63 -8 16 -12 34 -9 39 3 5 -5 14 -17 21 -13 7 -26 16 -29 22 -9 13
-99 19 -125 8z m103 -56 c47 -33 38 -128 -13 -152 -75 -35 -152 47 -112 120
25 47 82 62 125 32z"/>
<path d="M3314 1437 c-2 -7 -3 -67 -2 -132 3 -105 5 -120 21 -123 14 -3 17 4
17 47 0 27 5 53 10 56 6 3 10 1 10 -5 0 -6 4 -9 9 -6 5 3 25 -16 45 -44 38
-52 76 -68 73 -30 -1 11 -5 20 -9 20 -4 0 -18 19 -32 42 -24 40 -24 44 -10 66
21 32 11 85 -19 100 -35 19 -107 24 -113 9z m84 -46 c23 -14 10 -46 -18 -46
-20 0 -26 6 -28 28 -3 21 1 27 15 27 10 0 24 -4 31 -9z"/>
<path d="M3758 1443 c-14 -4 -17 -20 -20 -105 l-3 -101 35 -28 c45 -38 102
-39 145 -5 29 24 30 26 33 129 4 97 2 105 -16 109 -11 3 -26 2 -33 -3 -10 -6
-11 -9 -1 -9 19 0 16 -144 -4 -175 -9 -14 -20 -22 -26 -19 -5 3 -15 0 -24 -6
-11 -10 -19 -8 -40 13 -24 24 -25 31 -23 112 1 47 0 87 -2 88 -2 2 -12 2 -21
0z"/>
<path d="M2662 1313 l3 -128 75 0 c68 0 75 2 75 20 0 17 -8 20 -53 23 l-53 3
2 102 2 102 -27 3 -27 3 3 -128z"/>
<path d="M3520 1311 c0 -124 1 -130 20 -128 17 1 20 8 20 56 l0 55 55 -57 c38
-39 64 -57 80 -57 38 0 30 19 -30 80 -30 30 -55 58 -55 63 0 4 14 23 31 42 18
19 38 44 46 55 13 19 12 20 -12 20 -19 0 -40 -14 -71 -47 l-45 -48 3 48 c3 43
1 47 -19 47 -23 0 -23 -2 -23 -129z"/>
<path d="M1795 1404 c-8 -3 -11 -107 -5 -206 0 -17 40 -7 50 12 6 11 16 17 22
14 7 -5 8 -2 3 6 -4 7 -2 16 6 21 15 10 36 12 27 4 -9 -10 46 -65 64 -65 16 0
18 11 18 104 0 65 -4 107 -11 112 -19 12 -28 -10 -30 -76 l-2 -64 -28 33 -27
33 -26 -38 -26 -39 -1 63 c-1 34 -2 67 -3 74 -1 13 -16 19 -31 12z"/>
</g>
</svg>
