<svg width="359" height="250" viewBox="0 0 359 250" fill="none" xmlns="http://www.w3.org/2000/svg">
<path d="M71.5284 250C111.032 250 143.057 247.566 143.057 244.563C143.057 241.56 111.032 239.125 71.5284 239.125C32.0243 239.125 0 241.56 0 244.563C0 247.566 32.0243 250 71.5284 250Z" fill="#F3F3F3"/>
<path d="M54.6748 55.4706C67.1229 50.1712 82.6272 53.5289 97.7688 55.8592C97.9097 53.0372 99.6176 49.6026 97.8286 47.6338C95.655 45.2419 95.8551 42.7286 97.163 40.2009C100.508 33.7372 95.7158 26.8594 90.8775 21.1406C89.787 19.8546 88.4087 18.8441 86.8548 18.1912C85.3008 17.5384 83.6149 17.2617 81.934 17.3835L72.9714 18.0242C70.7905 18.1801 68.7091 18.999 67.0059 20.3712C65.3026 21.7435 64.0587 23.6037 63.4405 25.7028C61.3005 28.616 60.155 31.5211 60.8762 34.4111C57.6707 36.6037 57.1321 39.2503 58.5726 42.234C59.794 44.1126 59.781 45.9412 58.517 47.7192C56.857 49.9861 55.5856 52.5137 54.7549 55.1985L54.6748 55.4706Z" fill="#2F2E41"/>
<path d="M350.493 216.121H96.7858C94.5296 216.121 92.3658 215.224 90.7704 213.627C89.1751 212.03 88.2788 209.865 88.2788 207.606C180.248 196.908 270.488 196.908 359 207.606C359 209.865 358.104 212.03 356.508 213.627C354.913 215.224 352.749 216.121 350.493 216.121Z" fill="#2F2E41"/>
<path d="M359 208.107L88.2788 207.606L119.654 154.766L119.805 154.515V38.0603C119.804 36.6468 120.083 35.2471 120.623 33.9412C121.163 32.6353 121.955 31.4487 122.954 30.4491C123.953 29.4496 125.138 28.6568 126.443 28.1159C127.748 27.5751 129.146 27.2967 130.558 27.2969H315.219C316.632 27.2967 318.03 27.5751 319.335 28.1159C320.64 28.6568 321.825 29.4496 322.824 30.4491C323.822 31.4487 324.614 32.6353 325.155 33.9412C325.695 35.2471 325.973 36.6468 325.973 38.0603V155.317L359 208.107Z" fill="#3F3D56"/>
<path d="M130.313 34.8098C129.384 34.8108 128.494 35.1805 127.837 35.8378C127.18 36.4951 126.811 37.3862 126.81 38.3158V144.498C126.811 145.428 127.181 146.319 127.837 146.976C128.494 147.633 129.384 148.003 130.313 148.004H316.966C317.894 148.003 318.785 147.633 319.441 146.976C320.098 146.319 320.467 145.428 320.468 144.498V38.3158C320.467 37.3862 320.098 36.4951 319.441 35.8378C318.785 35.1806 317.894 34.8108 316.966 34.8098H130.313Z" fill="white"/>
<path d="M131.095 162.028C130.808 162.029 130.527 162.111 130.286 162.266C130.044 162.421 129.852 162.642 129.731 162.903L120.063 183.939C119.958 184.168 119.912 184.419 119.93 184.671C119.947 184.922 120.027 185.165 120.163 185.377C120.299 185.59 120.486 185.764 120.707 185.885C120.928 186.006 121.175 186.069 121.427 186.069H324.736C324.992 186.069 325.244 186.004 325.467 185.879C325.691 185.754 325.879 185.575 326.013 185.357C326.148 185.139 326.224 184.89 326.236 184.634C326.247 184.378 326.193 184.124 326.079 183.895L315.57 162.859C315.446 162.609 315.255 162.398 315.017 162.251C314.78 162.105 314.506 162.027 314.228 162.028H131.095Z" fill="#2F2E41"/>
<path d="M222.889 33.0567C224.132 33.0567 225.14 32.0477 225.14 30.8029C225.14 29.5581 224.132 28.549 222.889 28.549C221.645 28.549 220.637 29.5581 220.637 30.8029C220.637 32.0477 221.645 33.0567 222.889 33.0567Z" fill="white"/>
<path d="M202.905 190.076C202.575 190.077 202.254 190.186 201.992 190.387C201.73 190.588 201.542 190.869 201.456 191.188L199.03 200.204C198.971 200.426 198.963 200.66 199.007 200.886C199.052 201.112 199.148 201.325 199.288 201.508C199.428 201.691 199.609 201.84 199.815 201.942C200.022 202.044 200.249 202.097 200.48 202.097H246.599C246.839 202.097 247.075 202.04 247.287 201.93C247.5 201.82 247.683 201.661 247.822 201.466C247.961 201.271 248.051 201.045 248.085 200.808C248.119 200.571 248.096 200.329 248.018 200.103L244.9 191.087C244.798 190.792 244.606 190.536 244.352 190.355C244.098 190.174 243.793 190.076 243.481 190.076H202.905Z" fill="#2F2E41"/>
<path d="M325.973 152.762V154.766H119.654L119.81 154.515V152.762H325.973Z" fill="#2F2E41"/>
<path d="M320.218 70.1204C339.564 70.1204 355.247 54.4234 355.247 35.0602C355.247 15.697 339.564 0 320.218 0C300.873 0 285.19 15.697 285.19 35.0602C285.19 54.4234 300.873 70.1204 320.218 70.1204Z" fill="#E85353"/>
<path d="M334.73 50.3364H305.706C305.176 50.3359 304.667 50.1246 304.292 49.749C303.916 49.3734 303.705 48.8642 303.705 48.333V30.8029C303.705 30.2717 303.916 29.7625 304.292 29.3869C304.667 29.0113 305.176 28.8 305.706 28.7994H334.73C335.261 28.8 335.77 29.0113 336.145 29.3869C336.52 29.7625 336.731 30.2717 336.732 30.8029V48.333C336.731 48.8642 336.52 49.3734 336.145 49.749C335.77 50.1247 335.261 50.3359 334.73 50.3364ZM305.706 30.8029V48.333H334.732L334.73 30.8029L305.706 30.8029Z" fill="white"/>
<path d="M329.226 30.8029H311.211V22.7891C311.211 16.9847 314.999 12.7719 320.218 12.7719C325.437 12.7719 329.226 16.9847 329.226 22.7891L329.226 30.8029ZM313.213 28.7994H327.224V22.7891C327.224 18.0708 324.343 14.7754 320.218 14.7754C316.093 14.7754 313.213 18.0708 313.213 22.7891L313.213 28.7994Z" fill="white"/>
<path d="M320.218 41.0705C321.324 41.0705 322.22 40.1735 322.22 39.0671C322.22 37.9606 321.324 37.0636 320.218 37.0636C319.113 37.0636 318.217 37.9606 318.217 39.0671C318.217 40.1735 319.113 41.0705 320.218 41.0705Z" fill="white"/>
<path d="M295.765 111.988H151.513C150.805 111.987 150.126 111.705 149.625 111.204C149.125 110.703 148.843 110.023 148.842 109.314V73.4994C148.843 72.7906 149.125 72.111 149.625 71.6097C150.126 71.1085 150.805 70.8265 151.513 70.8257H295.765C296.473 70.8265 297.152 71.1085 297.653 71.6097C298.154 72.111 298.436 72.7906 298.437 73.4994V109.314C298.436 110.023 298.154 110.703 297.653 111.204C297.152 111.705 296.473 111.987 295.765 111.988ZM151.513 71.8952C151.088 71.8957 150.681 72.0648 150.381 72.3656C150.08 72.6663 149.911 73.0741 149.911 73.4994V109.314C149.911 109.74 150.08 110.147 150.381 110.448C150.681 110.749 151.088 110.918 151.513 110.919H295.765C296.19 110.918 296.598 110.749 296.898 110.448C297.199 110.147 297.368 109.74 297.368 109.314V73.4994C297.368 73.0741 297.199 72.6663 296.898 72.3656C296.598 72.0648 296.19 71.8956 295.765 71.8952L151.513 71.8952Z" fill="#E6E6E6"/>
<path d="M173.927 100.924C179.937 100.924 184.809 96.0478 184.809 90.0327C184.809 84.0175 179.937 79.1413 173.927 79.1413C167.918 79.1413 163.046 84.0175 163.046 90.0327C163.046 96.0478 167.918 100.924 173.927 100.924Z" fill="#E6E6E6"/>
<path d="M199.058 82.7718C198.82 82.7714 198.584 82.8181 198.363 82.9091C198.143 83.0002 197.943 83.1338 197.774 83.3024C197.605 83.471 197.472 83.6713 197.38 83.8917C197.289 84.1121 197.242 84.3484 197.242 84.587C197.242 84.8256 197.289 85.0619 197.38 85.2823C197.472 85.5027 197.605 85.703 197.774 85.8716C197.943 86.0402 198.143 86.1738 198.363 86.2649C198.584 86.3559 198.82 86.4026 199.058 86.4022H284.556C285.037 86.4022 285.499 86.211 285.839 85.8705C286.179 85.5301 286.37 85.0684 286.37 84.587C286.37 84.1056 286.179 83.6439 285.839 83.3034C285.499 82.963 285.037 82.7718 284.556 82.7718H199.058Z" fill="#E6E6E6"/>
<path d="M199.058 93.6631C198.577 93.6631 198.116 93.8544 197.776 94.1948C197.436 94.5352 197.245 94.9969 197.245 95.4784C197.245 95.9598 197.436 96.4215 197.776 96.7619C198.116 97.1024 198.577 97.2936 199.058 97.2936H235.848C236.329 97.2936 236.791 97.1024 237.131 96.7619C237.471 96.4215 237.662 95.9598 237.662 95.4784C237.662 94.9969 237.471 94.5352 237.131 94.1948C236.791 93.8544 236.329 93.6631 235.848 93.6631H199.058Z" fill="#E6E6E6"/>
<path d="M119.299 94.3974L92.6332 108.587L92.2957 96.7624C100.999 95.3081 109.28 92.7761 116.936 88.654L119.725 81.7575C120.029 81.006 120.523 80.3466 121.159 79.8439C121.794 79.3411 122.549 79.0125 123.35 78.8901C124.151 78.7677 124.969 78.8558 125.726 79.1458C126.482 79.4358 127.15 79.9177 127.664 80.5441C128.417 81.4607 128.793 82.6292 128.716 83.8128C128.64 84.9965 128.117 86.1069 127.253 86.919L119.299 94.3974Z" fill="#FFB8B8"/>
<path d="M54.1435 176.323C53.949 175.609 53.9077 174.862 54.0223 174.131C54.137 173.4 54.405 172.701 54.8087 172.081L60.6665 163.083C62.052 160.955 64.1779 159.417 66.6318 158.769C69.0857 158.121 71.6926 158.409 73.9467 159.576C71.4849 163.77 71.8281 167.45 74.797 170.647C70.1881 172.899 65.9285 175.806 62.15 179.277C61.4602 179.748 60.668 180.047 59.8395 180.149C59.0109 180.251 58.1699 180.154 57.3866 179.865C56.6033 179.576 55.9003 179.104 55.3361 178.488C54.772 177.872 54.3631 177.13 54.1435 176.323Z" fill="#2F2E41"/>
<path d="M120.514 164.559C119.627 166.037 118.376 167.263 116.88 168.118C115.384 168.974 113.694 169.43 111.971 169.443L73.0556 169.738L71.3679 159.94L88.5827 154.872L74.0683 143.723L89.9329 125.142L118.748 152.023C120.432 153.594 121.526 155.696 121.848 157.978C122.169 160.26 121.698 162.583 120.514 164.559Z" fill="#2F2E41"/>
<path d="M66.9797 231.564H57.866C49.6832 175.424 41.3539 119.126 65.9671 98.1138L94.996 102.844L91.283 127.507L75.0808 146.088L66.9797 231.564Z" fill="#2F2E41"/>
<path d="M74.9912 244.282C74.2777 244.476 73.5312 244.518 72.8006 244.403C72.07 244.288 71.372 244.02 70.7524 243.616L60.8568 242.285C58.7304 240.898 57.1944 238.771 56.5469 236.314C55.8993 233.858 56.1864 231.249 57.3523 228.993C61.543 231.457 65.2191 231.113 68.4137 228.141C70.6708 232.703 74.3899 232.425 77.9417 236.268C78.412 236.958 78.7106 237.751 78.8128 238.58C78.9149 239.41 78.8176 240.251 78.529 241.036C78.2403 241.82 77.7686 242.523 77.1532 243.088C76.5379 243.653 75.7966 244.062 74.9912 244.282Z" fill="#2F2E41"/>
<path d="M88.5828 60.6125L71.7056 56.5583C74.5086 50.8156 74.7394 44.4255 73.3933 37.6388L84.8698 37.3009C85.2294 45.7404 86.3173 53.6251 88.5828 60.6125Z" fill="#FFB8B8"/>
<path d="M93.2214 113.016C80.9354 121.396 72.2544 113.303 65.6299 100.817C66.5504 93.1762 65.0599 84.0328 62.2994 74.0978C61.0717 69.7158 61.5301 65.0323 63.5839 60.972C65.6378 56.9117 69.138 53.7697 73.3934 52.1663L87.9078 58.2476C100.232 68.3025 102.658 79.1939 98.0342 90.6811L93.2214 113.016Z" fill="#E85353"/>
<path d="M57.8661 69.0587L44.3642 76.1536L68.33 90.3432L71.6646 98.5762C71.8872 99.1257 71.9956 99.7148 71.9833 100.308C71.971 100.9 71.8381 101.485 71.5929 102.024C71.3477 102.564 70.9952 103.048 70.5569 103.447C70.1187 103.846 69.6038 104.152 69.0438 104.345C68.4071 104.565 67.7283 104.634 67.0605 104.547C66.3927 104.46 65.754 104.22 65.1944 103.845C64.6348 103.47 64.1696 102.971 63.8351 102.386C63.5006 101.801 63.306 101.146 63.2665 100.473L62.9292 94.7353L32.4691 84.6744C31.4428 84.3354 30.5071 83.7671 29.7327 83.0126C28.9584 82.258 28.3657 81.337 27.9996 80.3193C27.4661 78.8357 27.4389 77.217 27.9224 75.7164C28.4059 74.2158 29.3728 72.918 30.6718 72.026L55.1657 55.2069L57.8661 69.0587Z" fill="#FFB8B8"/>
<path d="M71.3678 70.4102C65.7367 67.9402 60.6162 70.6233 54.153 72.7751L53.1404 54.8691C59.5581 51.4455 65.6769 50.5224 71.3678 53.1799L71.3678 70.4102Z" fill="#E85353"/>
<path d="M78.1038 46.1704C84.055 46.1704 88.8793 41.3417 88.8793 35.3852C88.8793 29.4287 84.055 24.6 78.1038 24.6C72.1527 24.6 67.3284 29.4287 67.3284 35.3852C67.3284 41.3417 72.1527 46.1704 78.1038 46.1704Z" fill="#FFB8B8"/>
<path d="M90.9949 34.0244C80.3262 35.0702 72.1968 33.3238 67.0012 28.3513V24.3468H90.0895L90.9949 34.0244Z" fill="#2F2E41"/>
</svg>
