<?xml version="1.0" standalone="no"?>
<!DOCTYPE svg PUBLIC "-//W3C//DTD SVG 20010904//EN"
 "http://www.w3.org/TR/2001/REC-SVG-20010904/DTD/svg10.dtd">
<svg version="1.0" xmlns="http://www.w3.org/2000/svg"
 width="1440.000000pt" height="1440.000000pt" viewBox="0 0 1440.000000 1440.000000"
 preserveAspectRatio="xMidYMid meet">
<metadata>
Created by potrace 1.11, written by Peter Selinger 2001-2013
</metadata>
<g transform="translate(0.000000,1440.000000) scale(0.100000,-0.100000)"
fill="#000000" stroke="none">
<path d="M1175 14308 c-20 -61 -107 -409 -104 -413 3 -2 99 -30 215 -61 115
-31 213 -59 217 -64 5 -4 -57 -252 -138 -551 -81 -299 -175 -650 -210 -779
-35 -129 -79 -293 -99 -365 -19 -71 -48 -179 -64 -240 -16 -60 -66 -247 -112
-413 -45 -167 -80 -305 -78 -308 6 -5 450 -125 453 -122 2 2 28 100 60 218 31
118 63 235 70 260 7 25 30 108 50 185 21 77 55 205 77 285 22 80 55 201 73
270 19 69 95 352 170 630 75 278 154 572 176 655 23 82 41 151 43 152 1 1 89
-22 196 -51 107 -29 207 -56 222 -60 26 -6 28 -4 42 46 49 175 96 355 96 365
0 7 -19 17 -42 23 -24 6 -325 88 -670 181 -345 93 -630 169 -633 169 -3 0 -7
-6 -10 -12z"/>
<path d="M2624 13903 c-3 -16 -10 -41 -15 -58 -4 -16 -31 -113 -58 -215 -99
-371 -310 -1153 -406 -1505 -24 -88 -62 -227 -84 -310 -22 -82 -90 -334 -151
-559 -112 -414 -114 -425 -73 -426 6 0 102 -25 214 -55 111 -30 204 -53 206
-51 3 2 45 154 94 337 49 184 100 372 113 419 13 47 41 150 62 230 21 80 39
147 41 149 2 3 38 -5 81 -17 550 -156 613 -166 714 -120 61 28 120 84 150 141
16 32 44 130 133 462 38 145 163 604 208 765 63 228 68 314 25 396 -28 52 -86
112 -135 138 -16 8 -231 69 -479 136 -247 66 -489 132 -537 145 -48 14 -90 25
-92 25 -3 0 -7 -12 -11 -27z m674 -611 c58 -15 102 -32 102 -39 0 -7 -31 -128
-70 -270 -38 -142 -102 -379 -142 -528 -39 -148 -72 -271 -73 -273 -6 -8 -425
113 -425 123 0 6 18 77 39 156 22 79 85 313 141 519 55 206 102 380 105 387 3
8 34 3 112 -18 59 -16 154 -42 211 -57z"/>
<path d="M5435 13158 c-4 -11 -178 -658 -280 -1038 -18 -69 -43 -161 -55 -205
-12 -44 -32 -118 -45 -165 -12 -47 -34 -128 -48 -180 -144 -528 -277 -1027
-277 -1037 0 -17 -11 -16 -115 12 -49 14 -127 35 -172 47 -46 12 -83 26 -83
31 0 9 166 626 180 670 11 33 13 32 -152 76 -62 17 -153 41 -203 55 -49 13
-92 22 -94 20 -3 -2 -26 -84 -52 -182 -26 -97 -77 -287 -114 -422 -79 -288
-84 -326 -60 -405 21 -66 94 -153 151 -180 20 -9 201 -62 403 -117 299 -82
379 -100 436 -101 83 0 149 27 207 85 66 66 52 22 284 883 36 132 85 314 110
405 24 91 123 458 219 815 97 358 186 690 199 738 18 63 21 89 13 92 -34 12
-426 115 -436 115 -6 0 -14 -6 -16 -12z"/>
<path d="M6267 12893 c-61 -21 -131 -82 -162 -142 -13 -26 -48 -139 -79 -252
-30 -112 -110 -406 -177 -654 -66 -247 -155 -574 -195 -725 -73 -267 -176
-651 -236 -875 -33 -124 -33 -183 0 -258 26 -59 84 -121 136 -146 38 -19 490
-145 826 -231 145 -38 207 -37 286 3 57 29 119 92 140 143 12 30 111 390 394
1439 33 121 116 429 186 685 114 424 125 470 120 527 -9 103 -73 200 -165 248
-17 8 -231 69 -475 135 -472 127 -507 133 -599 103z m448 -523 c278 -74 296
-80 291 -89 -3 -4 -45 -158 -95 -342 -84 -314 -270 -1001 -431 -1599 -40 -146
-74 -268 -76 -272 -2 -4 -44 4 -92 18 -48 13 -159 43 -247 66 -88 23 -161 42
-163 43 -1 1 105 402 238 891 132 489 260 966 286 1059 25 94 52 196 61 227 9
33 20 55 27 53 6 -3 97 -27 201 -55z"/>
<path d="M7846 12503 c-3 -10 -37 -137 -76 -283 -39 -146 -80 -296 -90 -335
-11 -38 -48 -178 -84 -310 -223 -827 -456 -1694 -512 -1899 -36 -131 -63 -239
-62 -240 6 -4 453 -123 455 -122 2 2 258 947 534 1971 77 286 176 652 220 814
44 161 77 296 74 299 -6 6 -424 121 -442 122 -6 0 -14 -8 -17 -17z"/>
<path d="M8585 12308 c-2 -7 -49 -179 -104 -383 -55 -203 -145 -539 -201 -745
-56 -206 -128 -474 -160 -595 -33 -121 -127 -470 -210 -775 -82 -305 -150
-560 -150 -565 0 -6 37 -20 83 -32 45 -12 142 -37 216 -58 73 -20 137 -33 141
-28 4 4 23 69 43 143 19 74 90 335 156 580 66 245 148 549 181 675 34 127 63
231 64 233 2 1 6 -39 10 -90 28 -387 146 -1702 152 -1708 10 -9 337 -100 342
-95 3 2 85 304 302 1110 32 121 133 495 224 830 261 967 307 1138 302 1142
-10 10 -432 121 -437 115 -3 -4 -36 -122 -74 -262 -154 -577 -356 -1325 -359
-1328 -2 -1 -8 62 -15 140 -6 79 -20 244 -31 368 -55 637 -92 1074 -97 1153
-3 48 -9 90 -13 92 -10 6 -338 95 -350 95 -6 0 -13 -6 -15 -12z"/>
<path d="M10275 11888 c-2 -7 -22 -83 -45 -168 -23 -85 -61 -227 -85 -315 -24
-88 -68 -252 -99 -365 -30 -113 -91 -338 -135 -500 -90 -335 -213 -788 -235
-870 -8 -30 -40 -149 -71 -265 -31 -115 -67 -248 -80 -295 -12 -47 -35 -131
-50 -188 -16 -56 -26 -104 -24 -106 4 -3 188 -53 947 -257 106 -28 194 -50
196 -48 11 12 116 413 109 419 -4 4 -155 47 -335 95 -180 49 -332 91 -338 95
-8 5 3 59 34 171 25 90 80 292 122 449 43 157 80 288 83 292 4 5 141 -28 306
-72 164 -44 303 -79 309 -77 5 2 26 66 47 143 20 76 45 170 55 207 15 54 16
70 6 76 -7 4 -144 43 -305 86 -161 43 -293 79 -295 81 -4 2 18 88 147 568 44
164 82 300 84 302 2 2 61 -12 133 -31 391 -106 540 -143 546 -137 12 13 117
407 109 414 -3 4 -182 55 -396 113 -215 59 -464 126 -554 151 -182 49 -180 49
-186 32z"/>
<path d="M11625 11528 c-4 -11 -75 -272 -410 -1513 -30 -110 -118 -436 -195
-725 -78 -289 -159 -589 -181 -667 -21 -78 -39 -149 -39 -157 0 -10 16 -20 44
-27 l45 -11 -117 -57 c-64 -32 -153 -75 -197 -96 -44 -21 -217 -105 -385 -187
l-305 -149 -411 111 c-227 62 -420 113 -429 113 -18 2 -20 -4 -189 -635 -19
-71 -30 -128 -25 -128 4 0 111 50 236 111 125 61 273 133 328 159 55 26 194
93 308 149 l209 101 104 -28 c58 -15 105 -32 105 -38 1 -32 -107 -394 -117
-394 -7 0 -155 38 -329 85 -175 47 -323 85 -331 85 -7 0 -18 -19 -24 -42 -17
-65 -115 -429 -172 -638 -27 -101 -52 -188 -54 -192 -8 -12 27 -24 211 -72 94
-25 221 -59 284 -75 62 -17 116 -32 118 -35 5 -4 -96 -388 -106 -405 -4 -6
-36 -2 -91 14 -228 64 -478 128 -504 129 -28 1 -30 -2 -46 -64 -10 -36 -65
-242 -124 -459 -59 -217 -103 -397 -99 -401 4 -4 89 -28 188 -54 99 -26 191
-52 205 -56 14 -5 81 -24 150 -41 69 -18 128 -35 133 -39 6 -5 -94 -395 -105
-405 -5 -5 -81 14 -318 80 -113 31 -272 74 -355 97 -82 22 -197 53 -255 69
-58 16 -126 34 -152 41 -27 6 -48 16 -48 21 0 5 31 124 70 265 38 141 76 282
84 312 24 92 320 1188 395 1464 39 143 69 261 67 263 -2 2 -60 -24 -130 -58
-71 -33 -129 -59 -131 -57 -2 2 37 151 86 333 101 375 108 429 65 520 -30 63
-85 118 -150 150 -41 19 -352 107 -786 221 -118 31 -227 10 -304 -57 -86 -76
-69 -25 -331 -999 -149 -555 -166 -617 -219 -815 -30 -110 -53 -201 -52 -203
4 -4 90 36 306 141 107 53 196 94 198 92 3 -3 -130 -511 -203 -772 l-22 -82
31 -10 c17 -5 118 -33 225 -61 136 -36 196 -48 201 -40 4 6 49 166 100 356 79
292 96 344 110 339 9 -3 83 -23 166 -45 267 -72 257 -68 251 -93 -4 -21 -127
-483 -183 -687 -53 -196 -75 -240 -148 -289 -104 -71 -170 -69 -463 10 -422
113 -585 160 -623 179 -80 41 -150 156 -150 248 0 35 26 150 76 335 106 393
103 382 99 386 -2 2 -59 -23 -127 -56 -68 -32 -147 -70 -176 -83 -61 -29 -47
7 -163 -425 -40 -148 -73 -271 -74 -273 -2 -2 -385 98 -432 113 -9 3 -9 15 2
52 9 26 20 66 25 88 34 135 36 140 66 155 17 8 137 67 267 130 214 104 238
118 246 145 10 29 46 162 286 1050 190 702 273 1011 317 1172 23 84 39 155 37
158 -6 6 -451 126 -454 123 -1 -2 -46 -167 -99 -368 -54 -201 -104 -387 -112
-415 -8 -27 -51 -185 -95 -350 -44 -165 -107 -399 -140 -520 -135 -500 -181
-669 -229 -850 -28 -104 -58 -214 -66 -243 l-15 -53 -82 -38 c-45 -21 -162
-77 -259 -124 l-177 -86 36 -73 c35 -72 125 -257 269 -555 41 -84 107 -222
148 -305 40 -84 113 -234 161 -333 48 -99 111 -229 140 -290 29 -60 92 -191
140 -290 48 -99 113 -234 145 -301 l58 -121 -54 -299 c-30 -164 -79 -434 -108
-599 -123 -675 -158 -876 -155 -880 2 -2 121 -49 264 -105 143 -57 321 -127
395 -157 242 -96 401 -156 405 -152 4 4 45 735 45 802 0 21 5 37 11 37 10 0
557 -214 702 -275 41 -17 59 -20 62 -12 2 7 13 196 24 421 12 225 22 411 24
413 2 1 172 -65 377 -147 205 -83 377 -147 380 -143 4 5 15 166 25 358 9 193
20 375 24 407 l6 56 355 -142 c195 -78 360 -145 367 -149 6 -4 15 -2 18 3 6
10 75 789 75 848 0 12 5 22 11 22 10 0 486 -186 664 -260 l70 -29 7 47 c4 26
16 215 27 420 10 205 21 376 24 379 4 3 176 -62 384 -145 208 -82 379 -149
380 -148 2 2 25 423 39 709 4 98 9 137 18 133 6 -2 103 -41 216 -85 113 -45
214 -86 225 -91 58 -27 307 -121 311 -117 2 2 14 188 25 413 12 225 22 410 23
411 1 2 171 -64 377 -146 205 -82 375 -149 376 -148 3 4 43 728 43 792 0 36 2
65 4 65 2 0 84 -32 182 -71 319 -126 587 -229 589 -227 2 2 10 145 20 318 9
173 19 358 23 411 l7 96 310 -124 c171 -68 318 -126 328 -129 16 -5 17 91 17
1925 0 1062 -2 1931 -5 1931 -3 0 -46 -20 -96 -44 -76 -38 -88 -41 -76 -23 7
12 51 81 95 153 l82 131 0 229 0 230 -116 28 c-64 16 -119 25 -124 20 -4 -5
-143 -241 -308 -524 -166 -283 -305 -521 -309 -528 -5 -8 -10 267 -12 610 -1
342 -4 624 -5 626 -2 1 -98 29 -215 61 -238 65 -219 67 -241 -28 -9 -39 -11
-111 -6 -270 3 -119 11 -407 16 -641 6 -234 15 -477 20 -540 6 -63 10 -120 10
-127 0 -12 81 24 435 197 116 56 253 122 305 147 52 25 134 65 182 89 l87 44
-62 -100 c-34 -56 -93 -152 -132 -215 -38 -62 -104 -165 -146 -227 -42 -62
-114 -178 -162 -258 -79 -134 -88 -156 -126 -295 -23 -82 -52 -188 -65 -235
-13 -47 -67 -249 -121 -450 -54 -201 -99 -366 -100 -368 -4 -5 -420 110 -429
119 -7 6 60 271 144 569 10 36 53 192 94 347 l76 281 0 176 c0 142 -3 176 -14
176 -7 0 -60 -23 -117 -51 -57 -28 -153 -75 -214 -104 -60 -29 -208 -101 -329
-159 -120 -59 -220 -105 -223 -103 -7 7 -46 487 -40 493 3 3 33 0 66 -7 165
-32 312 24 372 144 33 65 330 1163 336 1242 8 116 -46 225 -140 279 -46 26
-57 29 -692 201 -236 64 -438 118 -448 121 -9 3 -19 -1 -22 -8z m803 -663 c1
-1 -13 -60 -33 -131 -19 -71 -70 -261 -114 -422 -43 -161 -81 -296 -84 -299
-3 -3 -93 18 -200 46 -106 28 -200 51 -207 51 -8 0 -27 -12 -43 -27 -15 -16
-26 -21 -23 -13 5 14 76 277 201 740 l47 176 227 -59 c124 -33 227 -60 229
-62z m-713 -1700 c14 -192 27 -351 29 -352 2 -2 91 40 200 92 108 53 200 94
204 91 5 -3 9 -24 10 -48 2 -24 18 -230 36 -458 19 -228 33 -416 32 -417 -2
-2 -456 124 -460 128 -2 2 -14 142 -27 312 -13 169 -26 307 -30 307 -4 0 -86
-38 -184 -85 -98 -47 -179 -84 -181 -82 -2 2 37 154 87 338 49 184 116 433
149 554 32 121 64 240 71 265 12 43 13 39 25 -125 7 -93 24 -327 39 -520z
m-469 -700 c-17 -63 -35 -115 -41 -115 -23 1 -242 66 -246 73 -3 6 290 153
312 156 3 1 -8 -51 -25 -114z m-3309 -461 c93 -25 191 -52 220 -60 l52 -14
-31 -113 c-16 -61 -36 -132 -42 -157 -56 -202 -98 -371 -94 -376 3 -2 73 -23
156 -46 l151 -41 -132 -64 c-72 -36 -161 -78 -197 -95 -36 -17 -153 -73 -260
-125 -271 -132 -340 -164 -340 -155 0 6 182 683 291 1086 27 98 49 185 49 193
0 7 2 13 5 13 3 0 80 -21 172 -46z m2858 -322 c83 -22 251 -68 375 -102 124
-33 241 -67 261 -76 50 -22 114 -89 139 -147 39 -87 32 -134 -74 -527 -53
-195 -101 -374 -107 -397 -6 -24 -12 -43 -13 -43 0 0 -59 16 -131 35 -71 20
-169 45 -217 57 -49 12 -88 27 -88 33 0 5 38 149 85 320 46 170 81 313 77 316
-10 10 -423 122 -428 116 -3 -2 -34 -110 -69 -240 l-65 -236 149 -323 c82
-178 166 -359 186 -403 226 -484 240 -523 232 -629 -5 -81 -185 -763 -217
-827 -32 -61 -77 -106 -137 -135 -81 -40 -141 -37 -348 19 -486 132 -651 179
-679 197 -49 30 -93 81 -117 135 -39 85 -31 151 50 450 39 143 90 331 113 418
22 86 46 157 52 157 6 0 103 -25 214 -55 112 -30 206 -55 208 -55 11 0 -4 -62
-90 -373 -51 -186 -90 -339 -87 -341 14 -9 432 -119 435 -115 3 2 23 76 47
164 23 88 52 198 65 244 43 150 44 138 -36 317 -40 87 -94 206 -120 264 -27
58 -105 231 -175 385 -70 154 -137 303 -150 330 -27 59 -45 140 -45 198 0 47
170 697 197 754 22 48 97 121 141 140 92 38 151 35 367 -25z m-2332 -482 c-3
-11 -13 -20 -22 -20 -29 0 -33 13 -9 27 32 17 37 16 31 -7z"/>
<path d="M750 10327 c-85 -24 -159 -85 -198 -162 -25 -48 -190 -656 -198 -729
-4 -29 -1 -79 6 -111 10 -51 204 -493 442 -1005 22 -47 57 -124 79 -172 l39
-86 -74 -274 c-41 -150 -78 -272 -83 -272 -12 2 -408 106 -410 109 -2 1 40
160 93 354 52 195 94 354 92 356 -2 1 -66 19 -143 40 -77 20 -178 48 -225 60
-46 13 -85 23 -86 22 -1 -1 -21 -69 -43 -151 l-41 -149 0 -444 0 -444 32 -14
c32 -12 97 -31 595 -165 239 -64 297 -71 376 -44 60 20 139 91 165 148 12 24
65 203 118 397 107 393 119 472 90 571 -13 45 -159 373 -328 738 -152 327
-218 476 -218 489 0 20 118 452 125 459 6 6 396 -97 408 -108 5 -4 -30 -150
-78 -325 -47 -175 -84 -319 -82 -321 5 -5 450 -124 453 -121 1 1 39 137 83
302 44 165 92 343 107 395 14 52 28 116 31 141 7 61 -18 146 -60 201 -60 79
-100 97 -377 172 -140 38 -318 86 -396 107 -166 45 -232 53 -294 36z"/>
<path d="M2195 9958 c-5 -13 -171 -626 -335 -1238 -45 -168 -106 -393 -135
-500 -29 -107 -87 -321 -128 -475 -42 -154 -110 -407 -152 -563 -43 -156 -74
-286 -71 -289 7 -8 1138 -314 1143 -310 1 2 28 97 59 211 39 141 54 210 47
214 -6 4 -161 47 -345 96 -183 49 -334 90 -335 90 -2 2 246 918 249 921 2 1
140 -35 308 -81 168 -46 308 -80 311 -76 3 4 23 72 43 152 21 80 46 173 56
208 10 34 15 64 11 66 -4 3 -67 21 -141 40 -271 71 -461 124 -466 129 -6 6
222 856 232 866 2 2 84 -17 182 -44 336 -91 467 -125 483 -125 13 0 22 21 39
83 12 45 37 138 56 206 19 69 31 128 27 131 -5 4 -37 14 -73 23 -36 10 -282
76 -547 147 -265 72 -489 130 -498 130 -8 0 -18 -6 -20 -12z"/>
<path d="M3545 9598 c-5 -15 -218 -801 -276 -1023 -22 -82 -62 -231 -89 -330
-66 -242 -401 -1484 -436 -1613 -15 -56 -25 -104 -23 -106 10 -10 445 -123
451 -117 3 3 45 150 93 326 47 176 115 426 150 555 35 129 84 314 110 410 26
96 50 186 54 200 6 17 10 -7 15 -80 7 -101 65 -919 86 -1205 5 -77 13 -188 16
-247 l7 -107 51 -15 c151 -43 429 -116 432 -113 3 3 -70 951 -101 1302 -8 93
-15 176 -15 185 0 15 6 15 68 2 134 -28 257 3 331 83 60 66 35 -15 280 892
114 421 119 458 75 553 -31 67 -75 115 -134 145 -25 12 -124 44 -220 69 -96
26 -206 56 -245 67 -137 38 -664 179 -670 179 -3 0 -8 -6 -10 -12z m407 -552
c276 -74 391 -106 393 -108 1 -2 -19 -82 -45 -178 -26 -96 -64 -238 -85 -315
-41 -155 -97 -358 -100 -363 -1 -1 -94 22 -206 53 -198 54 -203 55 -223 36
-12 -10 -26 -21 -32 -24 -6 -3 8 65 32 151 204 764 204 762 209 762 2 0 28 -6
57 -14z"/>
<path d="M5025 9178 c-3 -18 -12 -112 -20 -208 -9 -96 -27 -292 -40 -435 -13
-143 -33 -359 -44 -480 -12 -121 -59 -633 -106 -1139 -47 -505 -85 -924 -85
-930 0 -12 366 -117 401 -116 8 1 47 72 91 168 144 310 290 627 325 702 58
124 288 621 316 680 14 30 60 129 102 220 43 91 119 255 170 365 51 110 156
337 234 504 78 167 140 305 139 306 -3 2 -315 85 -400 107 -26 7 -50 10 -52 7
-5 -5 -70 -149 -523 -1171 -136 -306 -248 -556 -249 -555 0 1 17 160 38 352
125 1135 167 1529 164 1533 -5 4 -436 122 -448 122 -4 0 -10 -15 -13 -32z"/>
<path d="M4980 5556 c-69 -33 -195 -94 -280 -135 -85 -41 -229 -110 -320 -154
-91 -44 -214 -103 -275 -132 -109 -52 -402 -193 -915 -440 -146 -70 -434 -208
-640 -308 -206 -99 -445 -213 -530 -255 -85 -41 -207 -99 -270 -129 -108 -51
-272 -132 -278 -138 -2 -2 63 -140 221 -465 46 -96 151 -312 232 -480 259
-535 301 -621 395 -815 51 -104 154 -318 230 -475 76 -157 181 -375 235 -485
54 -110 123 -254 155 -320 32 -66 109 -226 172 -355 63 -129 136 -281 163
-338 l49 -102 97 0 c109 0 96 -4 343 114 87 42 159 76 161 76 1 0 68 32 149
70 295 141 763 363 821 390 33 15 123 58 200 95 77 37 167 80 200 95 84 38
449 212 452 214 2 1 65 346 142 767 77 420 172 942 212 1159 l72 395 -101 210
c-55 116 -130 273 -167 350 -37 77 -89 185 -115 240 -26 55 -80 168 -120 250
-40 83 -91 191 -115 240 -218 458 -437 911 -443 916 -4 4 -63 -21 -132 -55z
m-1032 -1363 c243 -500 319 -658 377 -778 35 -71 102 -211 150 -310 48 -99
114 -235 146 -303 l59 -122 -297 -383 c-163 -210 -316 -407 -340 -437 -43 -55
-158 -203 -346 -447 -56 -73 -104 -132 -107 -132 -3 0 -51 95 -107 212 -57
117 -173 355 -258 531 -85 175 -155 320 -155 321 0 2 -70 146 -155 320 -85
174 -155 319 -155 320 0 2 -61 129 -136 282 -75 153 -152 311 -170 351 l-34
73 246 119 c136 66 248 120 249 120 2 0 133 63 292 141 158 77 356 173 438
212 83 39 159 76 170 84 11 7 24 13 31 13 6 0 52 -84 102 -187z"/>
</g>
</svg>
