<svg width="1440" height="1460" viewBox="0 0 1440 1460" fill="none" xmlns="http://www.w3.org/2000/svg">
<path d="M1238.72 -155.116C1090.77 -288.202 1466.28 -35.3063 1773.89 176.717C1953.16 300.286 1965.16 559.819 1799.35 700.939L1626.57 847.979C1561.67 903.213 1478.43 931.56 1393.4 925.731C1132.63 907.853 577.492 861.397 586.679 790.383C598.679 697.625 1477.72 59.8838 1238.72 -155.116Z" fill="url(#paint0_linear)"/>
<path d="M1187.76 -173.36C1024.61 -318.809 1450.78 -31.1239 1785.2 199.373C1965.54 323.669 1976.58 585.12 1808.6 725.658L1612.07 890.07C1546.25 945.131 1462.03 972.748 1376.5 965.79C1102.13 943.467 499.52 885.813 508.297 810.61C519.655 713.286 1445.36 56.2816 1187.76 -173.36Z" fill="url(#paint1_linear)"/>
<defs>
<linearGradient id="paint0_linear" x1="1789.63" y1="443.21" x2="609.671" y2="859.584" gradientUnits="userSpaceOnUse">
<stop stop-color="#2F80ED"/>
<stop offset="1" stop-color="#C970B0"/>
</linearGradient>
<linearGradient id="paint1_linear" x1="1783.12" y1="463.975" x2="547.568" y2="920.889" gradientUnits="userSpaceOnUse">
<stop stop-color="#2F80ED" stop-opacity="0.1"/>
<stop offset="1" stop-color="#C970B0" stop-opacity="0.1"/>
</linearGradient>
</defs>
</svg>
