<svg width="960" height="1460" viewBox="0 0 960 1460" fill="none" xmlns="http://www.w3.org/2000/svg">
<path d="M758.716 -155.116C610.774 -288.202 986.279 -35.3063 1293.89 176.717C1473.16 300.286 1485.16 559.819 1319.35 700.939L1146.57 847.979C1081.67 903.213 998.428 931.56 913.404 925.731C652.632 907.853 97.4915 861.397 106.679 790.383C118.679 697.625 997.716 59.8838 758.716 -155.116Z" fill="url(#paint0_linear)"/>
<path d="M707.763 -173.36C544.606 -318.809 970.777 -31.1239 1305.2 199.373C1485.54 323.669 1496.58 585.12 1328.6 725.658L1132.07 890.07C1066.25 945.131 982.031 972.748 896.504 965.79C622.127 943.467 19.52 885.813 28.2965 810.61C39.6545 713.286 965.363 56.2816 707.763 -173.36Z" fill="url(#paint1_linear)"/>
<defs>
<linearGradient id="paint0_linear" x1="1309.63" y1="443.21" x2="129.671" y2="859.584" gradientUnits="userSpaceOnUse">
<stop stop-color="#2F80ED"/>
<stop offset="1" stop-color="#C970B0"/>
</linearGradient>
<linearGradient id="paint1_linear" x1="1303.12" y1="463.975" x2="67.5683" y2="920.889" gradientUnits="userSpaceOnUse">
<stop stop-color="#2F80ED" stop-opacity="0.1"/>
<stop offset="1" stop-color="#C970B0" stop-opacity="0.1"/>
</linearGradient>
</defs>
</svg>
