<svg width="24" height="26" viewBox="0 0 24 26" fill="none" xmlns="http://www.w3.org/2000/svg">
<path fill-rule="evenodd" clip-rule="evenodd" d="M9.52154 23.0046C9.52804 23.1581 9.51147 23.3079 9.47913 23.4596C9.42231 23.7261 9.31259 24.0081 9.15727 24.2687C8.71574 25.0094 7.96568 25.5037 7 25.5037C4.72512 25.5037 3.83229 24.3876 2.7144 21.5929C1.95729 19.7001 1.60012 19.2537 0.75 19.2537L0.75 16.7537C3.02488 16.7537 3.91771 17.8697 5.0356 20.6644C5.79271 22.5572 6.14988 23.0037 7 23.0037C7 22.641 6.99503 22.3197 6.98458 21.8846C6.96008 20.8648 6.95726 20.6567 7.00175 20.384C7.01953 19.7889 7.17317 19.3667 7.48125 18.9476C4.69149 18.3403 2.8099 17.0861 1.72997 15.0518L1.32542 14.1004C0.931307 12.9678 0.75 11.6844 0.75 10.2023C0.75 8.49534 1.27043 6.96912 2.24252 5.69334C1.93928 4.48066 1.98081 2.99903 2.65039 1.32575L2.86917 0.778995L3.43008 0.599575C3.50518 0.575553 3.59648 0.553856 3.70374 0.537022C4.79595 0.365598 6.35013 0.774599 8.38193 2.07605C9.57971 1.7984 10.8411 1.65822 12.111 1.65822C13.2458 1.65822 14.3743 1.77262 15.452 1.99817C17.4288 0.760258 18.9403 0.371998 20.0031 0.537242C20.1091 0.553726 20.1995 0.575007 20.274 0.598625L20.8384 0.777607L21.0574 1.3277C21.6432 2.79862 21.7437 4.1542 21.5306 5.34036C22.6481 6.68125 23.25 8.32973 23.25 10.2023C23.25 11.781 23.1369 12.968 22.8118 14.1229L22.4686 15.0646C21.5704 17.0967 19.5893 18.365 16.5344 18.9691C16.8519 19.4087 17 19.855 17 20.5037V21.7537C17 22.3594 17 22.3781 16.9986 23.0037C17.0015 23.0486 17.0052 23.0706 17.0093 23.0843C17.0083 23.0846 17 25.5037 17 25.5037C15.9353 25.5037 15.1436 24.9844 14.7542 24.1653C14.5523 23.7407 14.492 23.3351 14.5 22.9859V20.5037C14.5 20.3989 14.4964 20.3928 14.2411 20.1375C13.5589 19.4553 13.25 18.9405 13.25 18.0037V16.8729L14.3751 16.7599C17.7242 16.4236 19.5457 15.4935 20.1496 14.1348L20.4318 13.3633C20.6564 12.5565 20.75 11.5741 20.75 10.2023C20.75 8.74467 20.2411 7.54058 19.2787 6.57857L18.7498 6.0498L18.9657 5.3337C19.1575 4.69752 19.203 3.94474 19.0001 3.08612C18.9664 3.09466 18.9314 3.10398 18.895 3.1141C18.2257 3.30044 17.39 3.70027 16.3831 4.37336L15.9238 4.68036L15.3876 4.54741C14.3505 4.29024 13.2361 4.15822 12.111 4.15822C10.8598 4.15822 9.62308 4.3174 8.48057 4.62887L7.92301 4.78088L7.44602 4.45457C6.40453 3.74209 5.53931 3.31839 4.84553 3.12046C4.79598 3.10632 4.7488 3.09368 4.70396 3.0824C4.4619 4.07613 4.55764 4.89257 4.80279 5.5052L5.09673 6.23976L4.55861 6.81977C3.70112 7.744 3.25 8.86871 3.25 10.2023C3.25 11.4232 3.39293 12.4349 3.65485 13.197L3.98196 13.9713C4.79967 15.5057 6.53651 16.4288 9.63322 16.7608L10.75 16.8805V18.0037C10.75 18.9405 10.4411 19.4553 9.75888 20.1375C9.50364 20.3928 9.5 20.3989 9.5 20.5037L9.47845 20.7347C9.4642 20.8105 9.4642 21.0062 9.48386 21.8245C9.4929 22.2009 9.49805 22.4988 9.49954 22.81C9.51448 22.8745 9.51674 22.9161 9.52154 23.0046Z" fill="#1A1B1E"/>
</svg>
