<svg width="18" height="18" viewBox="0 0 18 18" fill="none" xmlns="http://www.w3.org/2000/svg">
<path fill-rule="evenodd" clip-rule="evenodd" d="M8.14543 4.21209C8.63373 4.75336 8.47891 5.36657 8.04716 5.94841C7.94479 6.08636 7.8268 6.22228 7.68429 6.37206C7.61589 6.44394 7.56256 6.49801 7.45099 6.60968L6.81202 7.24901C6.72831 7.33271 7.29983 8.47477 8.40899 9.58502C9.51755 10.6947 10.6595 11.2666 10.7436 11.1824L11.3822 10.5435C11.7338 10.1916 11.92 10.0217 12.1759 9.85386C12.7079 9.50486 13.2881 9.41002 13.7775 9.84761C15.3753 10.9906 16.2795 11.6919 16.7225 12.1522C17.5865 13.0499 17.4733 14.4318 16.7274 15.2201C16.4688 15.4935 16.1408 15.8216 15.7535 16.195C13.4105 18.5393 8.46581 17.1127 4.67622 13.3193C0.885766 9.52516 -0.540093 4.57997 1.79795 2.24067C2.2177 1.81433 2.35609 1.676 2.76489 1.2732C3.52599 0.523258 4.97163 0.405833 5.85043 1.27394C6.31268 1.73057 7.04963 2.67877 8.14543 4.21209ZM12.5602 11.7219L11.9215 12.3609C10.8359 13.4471 8.98713 12.5213 7.23087 10.7633C5.47341 9.00408 4.54857 7.15598 5.63453 6.07012L6.27288 5.43142C6.37503 5.32917 6.42175 5.2818 6.47784 5.22286C6.55425 5.14255 6.61704 5.07201 6.66732 5.00959C5.69618 3.65681 5.03601 2.81152 4.68012 2.45996C4.49633 2.2784 4.08478 2.31183 3.93369 2.4607C3.53073 2.85775 3.39828 2.99013 2.98022 3.41472C1.47663 4.91915 2.62768 8.91125 5.85434 12.1411C9.07998 15.3699 13.0715 16.5215 14.5865 15.0058C14.9678 14.638 15.2785 14.3271 15.5177 14.0744C15.6905 13.8917 15.7214 13.5148 15.5226 13.3082C15.1915 12.9642 14.3809 12.3321 12.9811 11.327C12.8791 11.4091 12.7537 11.5282 12.5602 11.7219ZM11.2559 7.92284L15.6667 3.5121V6.50025H17.3333V0.66692H11.5V2.33359H14.4882L10.0774 6.74433L11.2559 7.92284Z" fill="#5B5B5B"/>
</svg>
