<svg width="18" height="18" viewBox="0 0 18 18" fill="none" xmlns="http://www.w3.org/2000/svg">
<path fill-rule="evenodd" clip-rule="evenodd" d="M9.9135 14.2129L8.99999 15.0106L8.08648 14.2129C4.82367 11.3639 3.16666 8.84276 3.16666 6.50008C3.16666 3.18459 5.7529 0.666748 8.99999 0.666748C12.2471 0.666748 14.8333 3.18459 14.8333 6.50008C14.8333 8.84276 13.1763 11.3639 9.9135 14.2129ZM3.73795 11.3362C4.08011 11.8047 4.46125 12.2812 4.88122 12.7659C3.32937 13.1154 2.33332 13.6115 2.33332 14.0001C2.33332 14.6725 5.31594 15.6667 8.99999 15.6667C12.684 15.6667 15.6667 14.6725 15.6667 14.0001C15.6667 13.6115 14.6706 13.1154 13.1188 12.7659C13.5387 12.2812 13.9199 11.8047 14.262 11.3362C16.136 11.9049 17.3333 12.817 17.3333 14.0001C17.3333 16.089 13.6002 17.3334 8.99999 17.3334C4.39977 17.3334 0.666656 16.089 0.666656 14.0001C0.666656 12.817 1.86394 11.9049 3.73795 11.3362ZM8.99999 2.33341C11.3365 2.33341 13.1667 4.11521 13.1667 6.50008C13.1667 8.20588 11.8105 10.305 8.99999 12.7968C6.18943 10.305 4.83332 8.20588 4.83332 6.50008C4.83332 4.11521 6.66353 2.33341 8.99999 2.33341ZM8.99999 4.00008C10.3807 4.00008 11.5 5.11937 11.5 6.50008C11.5 7.88079 10.3807 9.00008 8.99999 9.00008C7.61928 9.00008 6.49999 7.88079 6.49999 6.50008C6.49999 5.11937 7.61928 4.00008 8.99999 4.00008ZM8.16666 6.50008C8.16666 6.03984 8.53975 5.66675 8.99999 5.66675C9.46023 5.66675 9.83332 6.03984 9.83332 6.50008C9.83332 6.96032 9.46023 7.33341 8.99999 7.33341C8.53975 7.33341 8.16666 6.96032 8.16666 6.50008Z" fill="#5B5B5B"/>
</svg>
