<svg width="20" height="20" viewBox="0 0 20 20" fill="none" xmlns="http://www.w3.org/2000/svg">
<path fill-rule="evenodd" clip-rule="evenodd" d="M10 19.1666C4.9374 19.1666 0.833344 15.0625 0.833344 9.99992C0.833344 4.93731 4.9374 0.833252 10 0.833252C15.0626 0.833252 19.1667 4.93731 19.1667 9.99992C19.1667 15.0625 15.0626 19.1666 10 19.1666ZM16.1663 14.2705C17.0072 13.0585 17.5 11.5868 17.5 9.99992C17.5 5.85778 14.1421 2.49992 10 2.49992C5.85787 2.49992 2.50001 5.85778 2.50001 9.99992C2.50001 11.5868 2.99283 13.0585 3.83376 14.2705C4.77164 13.0316 6.97551 12.4999 10 12.4999C13.0245 12.4999 15.2284 13.0316 16.1663 14.2705ZM14.9706 15.6164C14.7267 14.7394 12.9745 14.1666 10 14.1666C7.02553 14.1666 5.27335 14.7394 5.02944 15.6164C6.35276 16.7884 8.09329 17.4999 10 17.4999C11.9067 17.4999 13.6473 16.7884 14.9706 15.6164ZM10 4.99992C7.98259 4.99992 6.66668 6.46305 6.66668 8.33325C6.66668 11.1894 8.13406 12.4999 10 12.4999C11.8484 12.4999 13.3333 11.2329 13.3333 8.49992C13.3333 6.60123 12.0118 4.99992 10 4.99992ZM8.33334 8.33325C8.33334 10.2243 9.01519 10.8333 10 10.8333C10.9814 10.8333 11.6667 10.2486 11.6667 8.49992C11.6667 7.4586 11.0131 6.66659 10 6.66659C8.94479 6.66659 8.33334 7.34644 8.33334 8.33325Z" fill="#5B5B5B"/>
</svg>
