<svg width="26" height="26" viewBox="0 0 26 26" fill="none" xmlns="http://www.w3.org/2000/svg">
<path fill-rule="evenodd" clip-rule="evenodd" d="M18 0.5H8C3.85786 0.5 0.5 3.85786 0.5 8V18C0.5 22.1421 3.85786 25.5 8 25.5H18C22.1421 25.5 25.5 22.1421 25.5 18V8C25.5 3.85786 22.1421 0.5 18 0.5ZM3 8C3 5.23858 5.23858 3 8 3H18C20.7614 3 23 5.23858 23 8V18C23 20.7614 20.7614 23 18 23H8C5.23858 23 3 20.7614 3 18V8ZM13 19.25C9.54822 19.25 6.75 16.4518 6.75 13C6.75 9.54822 9.54822 6.75 13 6.75C16.4518 6.75 19.25 9.54822 19.25 13C19.25 16.4518 16.4518 19.25 13 19.25ZM13 16.75C15.0711 16.75 16.75 15.0711 16.75 13C16.75 10.9289 15.0711 9.25 13 9.25C10.9289 9.25 9.25 10.9289 9.25 13C9.25 15.0711 10.9289 16.75 13 16.75ZM20.5 6.75C20.5 7.44036 19.9404 8 19.25 8C18.5596 8 18 7.44036 18 6.75C18 6.05964 18.5596 5.5 19.25 5.5C19.9404 5.5 20.5 6.05964 20.5 6.75Z" fill="#1A1B1E"/>
</svg>
