<svg width="497" height="328" viewBox="0 0 497 328" fill="none" xmlns="http://www.w3.org/2000/svg">
<g filter="url(#filter0_d)">
<path opacity="0.1" d="M238.709 322C365.899 322 469.007 316.089 469.007 308.797C469.007 301.505 365.899 295.594 238.709 295.594C111.519 295.594 8.41162 301.505 8.41162 308.797C8.41162 316.089 111.519 322 238.709 322Z" fill="#6897DA"/>
<path d="M449.655 48.4301H37.2733C36.79 48.4307 36.3115 48.5265 35.8652 48.7123C35.4189 48.898 35.0135 49.1699 34.6723 49.5124C34.3312 49.855 34.0608 50.2615 33.8767 50.7086C33.6927 51.1558 33.5985 51.6349 33.5996 52.1185V304.631C33.5979 305.606 33.7882 306.572 34.1595 307.473C34.5309 308.375 35.076 309.194 35.7638 309.884C36.4516 310.575 37.2686 311.123 38.1682 311.498C39.0677 311.872 40.0322 312.066 41.0066 312.068H445.922C446.896 312.066 447.861 311.872 448.76 311.498C449.66 311.123 450.477 310.575 451.165 309.884C451.852 309.194 452.397 308.375 452.769 307.473C453.14 306.572 453.33 305.606 453.329 304.631V52.1185C453.33 51.1421 452.944 50.2053 452.255 49.5137C451.566 48.8221 450.631 48.4324 449.655 48.4301Z" fill="url(#paint0_linear)"/>
<path d="M451.66 64.1078V303.145C451.659 305.093 450.885 306.961 449.508 308.339C448.131 309.716 446.264 310.491 444.317 310.492H42.6838C40.7352 310.492 38.8663 309.717 37.4884 308.339C36.1105 306.96 35.3364 305.09 35.3364 303.141V64.1078H451.66Z" fill="white"/>
<path d="M451.66 53.4857V64.1078H35.3364V53.4857C35.3364 52.5187 35.7203 51.5914 36.4037 50.9077C37.0871 50.224 38.0139 49.8399 38.9803 49.8399H448.016C448.982 49.8399 449.909 50.224 450.593 50.9077C451.276 51.5914 451.66 52.5187 451.66 53.4857Z" fill="#EDEDF4"/>
<path opacity="0.8" d="M41.9346 58.571C42.875 58.571 43.6373 57.8083 43.6373 56.8674C43.6373 55.9265 42.875 55.1637 41.9346 55.1637C40.9942 55.1637 40.2318 55.9265 40.2318 56.8674C40.2318 57.8083 40.9942 58.571 41.9346 58.571Z" fill="#FA5959"/>
<path opacity="0.8" d="M46.6172 58.571C47.5576 58.571 48.3199 57.8083 48.3199 56.8674C48.3199 55.9265 47.5576 55.1637 46.6172 55.1637C45.6768 55.1637 44.9144 55.9265 44.9144 56.8674C44.9144 57.8083 45.6768 58.571 46.6172 58.571Z" fill="#FED253"/>
<path opacity="0.8" d="M51.2997 58.571C52.2401 58.571 53.0025 57.8083 53.0025 56.8674C53.0025 55.9265 52.2401 55.1637 51.2997 55.1637C50.3593 55.1637 49.597 55.9265 49.597 56.8674C49.597 57.8083 50.3593 58.571 51.2997 58.571Z" fill="#8CCF4D"/>
<path d="M267.728 43.7494V42.0457H265.174V43.7494H267.728Z" fill="url(#paint1_linear)"/>
<path d="M171.097 85.0583H131.082V89.3174H171.097V85.0583Z" fill="#EDEDF4"/>
<path d="M355.846 97.4096H131.082V101.669H355.846V97.4096Z" fill="#EDEDF4"/>
<path d="M355.846 109.761H131.082V114.02H355.846V109.761Z" fill="#EDEDF4"/>
<path d="M355.846 122.112H131.082V126.371H355.846V122.112Z" fill="#EDEDF4"/>
<path d="M355.846 134.464H131.082V138.723H355.846V134.464Z" fill="#EDEDF4"/>
<path d="M312.779 158.025H174.004V265.354H312.779V158.025Z" fill="#EDEDF4"/>
<path d="M267.741 191.276C267.562 191.276 267.384 191.301 267.2 191.306C267.261 191.058 267.281 190.802 267.26 190.547C267.208 189.473 266.917 188.424 266.409 187.477C266.096 186.918 265.743 186.383 265.353 185.875C264.195 184.274 263.122 182.638 261.85 181.126C261.298 180.539 260.842 179.867 260.5 179.137C260.372 178.743 260.218 178.358 260.04 177.983C259.794 177.6 259.448 177.293 259.038 177.093C258.629 176.894 258.173 176.812 257.72 176.854C256.81 176.962 255.972 177.405 255.371 178.098C255.013 178.481 254.719 179.073 255.017 179.508C255.315 179.942 255.962 179.998 256.001 180.475C256.001 180.73 256.001 181.148 255.741 181.229C255.28 181.35 254.841 181.543 254.438 181.799C254.239 181.931 254.074 182.108 253.955 182.315C253.836 182.522 253.767 182.753 253.753 182.992C254.489 183.103 255.107 182.485 255.775 182.14C256.623 181.778 257.576 181.743 258.448 182.042C258.784 182.131 259.097 182.289 259.368 182.506C259.607 182.741 259.808 183.011 259.964 183.307C260.784 184.493 261.29 185.867 261.437 187.302L261.811 189.696C261.257 189.74 260.706 189.814 260.16 189.917C258.689 190.134 257.19 190.032 255.762 189.619C254.272 189.193 252.782 188.418 251.246 188.767C250.526 188.925 249.871 189.325 249.143 189.44C248.574 189.495 248 189.465 247.44 189.351L246.269 189.163C246.231 189.065 246.201 188.963 246.171 188.861C245.929 188.007 245.817 187.121 245.839 186.233C246.603 186.192 247.344 185.965 248 185.571C248.655 185.177 249.204 184.629 249.599 183.974C249.993 183.319 250.222 182.577 250.264 181.814C250.306 181.05 250.161 180.288 249.841 179.593C250.472 179.239 250.995 178.719 251.352 178.09L251.054 178.034L251.335 177.608C251.269 177.568 251.213 177.513 251.172 177.447C251.13 177.382 251.105 177.307 251.097 177.23C251.089 177.153 251.099 177.075 251.127 177.003C251.154 176.93 251.198 176.865 251.254 176.812C251.006 176.683 250.729 176.622 250.45 176.633C250.539 176.467 250.394 176.262 250.22 176.207C250.038 176.17 249.852 176.159 249.666 176.173C249.395 176.152 249.128 176.09 248.875 175.99C247.057 175.364 245.086 174.814 243.234 175.338C242.418 175.593 241.655 175.994 240.982 176.522C240.327 176.891 239.837 177.496 239.614 178.215C239.39 178.933 239.451 179.71 239.782 180.385C240.063 181.083 240.264 181.81 240.382 182.553C240.408 183.247 240.329 183.94 240.148 184.61C240.553 184.734 240.967 184.826 241.387 184.887C241.15 185.802 240.732 186.659 240.156 187.408C239.893 187.74 239.609 188.054 239.305 188.35H239.254C238.41 188.508 237.557 188.613 236.7 188.665C235.797 188.665 234.912 188.324 234.014 188.388C233.482 188.448 232.958 188.567 232.452 188.742C230.115 189.427 227.688 189.751 225.253 189.704L224.959 189.734L225.232 187.996C225.378 186.562 225.885 185.187 226.705 184.001C226.861 183.705 227.062 183.435 227.301 183.2C227.573 182.984 227.888 182.825 228.224 182.736C229.096 182.437 230.047 182.472 230.894 182.834C231.562 183.162 232.171 183.78 232.92 183.686C232.904 183.448 232.834 183.216 232.715 183.009C232.595 182.802 232.429 182.626 232.23 182.493C231.828 182.237 231.389 182.045 230.928 181.923C230.681 181.842 230.647 181.424 230.668 181.169C230.706 180.692 231.383 180.59 231.651 180.198C231.919 179.806 231.651 179.176 231.298 178.788C230.696 178.097 229.858 177.655 228.948 177.549C228.496 177.506 228.04 177.588 227.632 177.788C227.223 177.987 226.877 178.295 226.632 178.677C226.451 179.051 226.296 179.437 226.168 179.832C225.826 180.562 225.371 181.233 224.819 181.821C223.542 183.333 222.473 184.968 221.316 186.569C220.928 187.077 220.575 187.611 220.26 188.167C219.754 189.117 219.463 190.167 219.408 191.242C219.387 191.497 219.408 191.755 219.468 192.004C219.44 192.064 219.424 192.129 219.421 192.196C219.434 192.312 219.471 192.425 219.528 192.527C219.585 192.629 219.661 192.719 219.753 192.792C220.405 193.448 221.09 194.125 221.967 194.406C222.512 194.535 223.065 194.631 223.623 194.692C224.968 194.934 226.207 195.714 227.573 195.709C228.514 195.709 229.442 195.335 230.37 195.467C231.647 195.641 232.566 196.681 233.35 197.69C234.015 198.478 234.514 199.392 234.818 200.377C235.121 201.566 234.933 202.903 235.568 203.951C235.728 204.165 235.851 204.404 235.934 204.658C235.947 205.06 235.857 205.458 235.674 205.816C235.138 207.465 236.313 209.224 236.189 210.927C236.129 211.758 235.763 212.541 235.725 213.372C235.661 214.441 236.095 215.638 235.499 216.528C235.861 216.34 236.227 216.174 236.602 216.025C234.814 221.268 233.196 226.673 233.32 232.184C233.414 235.758 234.171 239.693 232.119 242.628C231.828 242.977 231.596 243.373 231.434 243.799C231.272 244.374 231.434 244.983 231.541 245.571C231.919 248.126 230.54 250.643 230.447 253.237C230.436 254.036 230.487 254.835 230.6 255.626L231.102 259.945C230.596 260.055 230.125 260.289 229.731 260.627C229.204 261.052 228.74 261.751 228.986 262.39C229.186 262.905 229.774 263.152 230.315 263.28C230.869 263.342 231.399 263.543 231.856 263.863C232.002 264.025 232.157 264.179 232.32 264.323C232.634 264.494 232.995 264.561 233.35 264.515C234.001 264.49 234.627 264.434 235.291 264.345C235.429 264.339 235.562 264.296 235.678 264.221C235.756 264.135 235.815 264.034 235.853 263.924C235.89 263.814 235.905 263.698 235.895 263.582C235.943 262.934 235.916 262.282 235.814 261.64C235.789 261.517 235.755 261.397 235.721 261.274C235.944 260.726 236.103 260.155 236.193 259.57C236.325 258.718 236.347 257.828 236.402 256.955C236.53 254.732 236.828 252.526 237.168 250.319L237.594 247.483C237.726 246.55 237.862 245.617 238.02 244.685C238.809 239.633 240.037 234.659 241.689 229.821C242.051 228.786 242.668 227.572 243.762 227.542L244.413 228.82C245.265 230.421 245.784 232.197 246.431 233.879C247.283 236.09 246.993 238.671 248.134 240.749C248.321 241.094 248.56 241.422 248.7 241.784C248.902 242.342 249.02 242.926 249.049 243.518L249.803 251.184C250.143 254.63 250.509 258.169 252.054 261.265C252.151 261.465 252.265 261.656 252.395 261.836C252.347 262.352 252.34 262.87 252.374 263.386C252.35 263.478 252.348 263.573 252.367 263.666C252.387 263.758 252.427 263.845 252.486 263.918C252.545 263.992 252.62 264.052 252.705 264.092C252.79 264.132 252.884 264.151 252.978 264.149C253.621 264.234 254.255 264.289 254.915 264.315C255.27 264.361 255.631 264.294 255.945 264.123C256.112 263.981 256.268 263.827 256.414 263.663C256.869 263.343 257.397 263.142 257.95 263.08C258.491 262.956 259.078 262.709 259.278 262.19C259.53 261.551 259.061 260.857 258.533 260.426C258.106 260.052 257.58 259.808 257.018 259.724C256.787 259.737 256.555 259.718 256.328 259.668C256.381 259.388 256.398 259.101 256.379 258.816C256.325 258.481 256.311 258.141 256.337 257.803C256.424 257.461 256.541 257.127 256.686 256.806C257.176 255.298 256.133 253.765 255.766 252.223C255.277 250.17 256.005 248.02 255.873 245.911C255.669 242.602 253.361 239.497 253.974 236.239C254.464 233.632 254.047 230.953 253.583 228.343L251.88 218.628C251.76 217.839 251.553 217.066 251.263 216.323C251.579 216.269 251.889 216.186 252.191 216.076C252.616 215.037 252.544 213.892 252.416 212.776C252.289 211.66 251.991 210.569 251.842 209.462C251.713 208.572 251.639 207.674 251.62 206.775C251.574 205.887 251.637 204.997 251.808 204.125C252.003 203.36 252.27 202.614 252.604 201.898C253.427 199.83 254.424 197.835 255.583 195.935C257.333 195.799 259.027 195.65 260.773 195.509C261.191 195.49 261.607 195.435 262.016 195.343C262.537 195.164 263.067 195.011 263.603 194.887C263.804 194.877 264.001 194.838 264.191 194.772C264.574 194.598 264.808 194.108 265.23 194.091C265.388 194.112 265.548 194.112 265.706 194.091C265.894 194.031 265.987 193.827 266.132 193.665C266.396 193.371 266.826 193.312 267.171 193.12C267.466 192.928 267.685 192.638 267.79 192.301C267.894 191.964 267.877 191.601 267.741 191.276Z" fill="url(#paint2_linear)"/>
<path d="M245.597 186.616C248.183 186.616 250.279 184.519 250.279 181.931C250.279 179.344 248.183 177.246 245.597 177.246C243.011 177.246 240.914 179.344 240.914 181.931C240.914 184.519 243.011 186.616 245.597 186.616Z" fill="#F4DBDE"/>
<path d="M240.191 187.762C239.712 188.351 239.177 188.891 238.594 189.376C241.345 191.017 244.615 191.556 247.747 190.884C247.632 190.564 247.214 190.518 246.921 190.356C246.539 190.085 246.279 189.675 246.197 189.214C245.881 188.092 245.789 186.918 245.925 185.76C245.982 185.479 245.982 185.189 245.925 184.908C245.761 184.487 245.447 184.141 245.043 183.937C244.38 183.524 243.664 183.201 242.915 182.979C242.14 182.749 241.697 182.643 241.668 183.545C241.636 185.072 241.119 186.55 240.191 187.762Z" fill="#F4DBDE"/>
<path d="M261.918 190.709L261.441 187.685C261.364 187.077 261.237 186.476 261.062 185.888C260.776 185.125 260.411 184.394 259.972 183.707C259.816 183.413 259.615 183.144 259.376 182.911C259.105 182.694 258.792 182.536 258.457 182.447C257.587 182.149 256.637 182.185 255.792 182.549C255.124 182.873 254.515 183.486 253.77 183.379C253.784 183.141 253.854 182.91 253.973 182.703C254.093 182.497 254.26 182.321 254.46 182.191C254.853 181.935 255.284 181.743 255.737 181.62C255.979 181.544 256.018 181.126 255.996 180.871C255.958 180.398 255.281 180.296 255.013 179.908C254.745 179.521 255.013 178.89 255.362 178.503C255.963 177.814 256.8 177.375 257.708 177.272C258.159 177.227 258.615 177.307 259.023 177.505C259.432 177.703 259.778 178.01 260.023 178.392C260.204 178.764 260.359 179.148 260.487 179.542C260.829 180.269 261.283 180.937 261.833 181.522C263.11 183.026 264.178 184.653 265.332 186.246C265.718 186.753 266.07 187.285 266.387 187.839C266.895 188.782 267.186 189.827 267.239 190.897C267.277 191.226 267.228 191.559 267.098 191.864C266.966 192.085 266.78 192.269 266.556 192.398C266.332 192.526 266.079 192.594 265.821 192.596C265.298 192.583 264.781 192.479 264.293 192.289L262.437 191.663C262.211 191.613 262.004 191.5 261.841 191.335C261.774 191.24 261.744 191.123 261.758 191.008C261.772 190.892 261.829 190.785 261.918 190.709Z" fill="#F4DBDE"/>
<path d="M224.819 191.378L225.291 188.354C225.372 187.746 225.5 187.145 225.675 186.557C225.958 185.793 226.324 185.062 226.764 184.376C226.917 184.081 227.117 183.813 227.356 183.584C227.626 183.365 227.939 183.206 228.276 183.12C229.147 182.821 230.098 182.856 230.945 183.218C231.613 183.541 232.222 184.155 232.967 184.048C232.952 183.81 232.882 183.579 232.762 183.372C232.643 183.166 232.476 182.991 232.277 182.86C231.883 182.605 231.452 182.412 231 182.289C230.757 182.212 230.719 181.795 230.74 181.539C230.779 181.067 231.451 180.964 231.724 180.577C231.996 180.189 231.724 179.559 231.37 179.176C230.77 178.485 229.933 178.045 229.025 177.941C228.573 177.896 228.118 177.977 227.709 178.174C227.301 178.372 226.954 178.679 226.709 179.061C226.53 179.433 226.376 179.817 226.249 180.211C225.906 180.936 225.452 181.605 224.904 182.191C223.627 183.695 222.559 185.322 221.401 186.914C221.016 187.422 220.664 187.954 220.349 188.507C219.844 189.452 219.553 190.496 219.498 191.565C219.462 191.896 219.511 192.231 219.643 192.536C219.777 192.76 219.968 192.945 220.195 193.073C220.423 193.2 220.68 193.267 220.941 193.265C221.463 193.254 221.979 193.15 222.465 192.958L224.325 192.349C224.55 192.3 224.756 192.186 224.917 192.021C224.987 191.922 225.016 191.8 224.998 191.68C224.979 191.56 224.915 191.452 224.819 191.378Z" fill="#F4DBDE"/>
<path d="M258.533 260.409C259.061 260.835 259.525 261.529 259.278 262.164C259.074 262.679 258.491 262.922 257.95 263.05C257.398 263.113 256.87 263.312 256.414 263.629C256.269 263.786 256.114 263.932 255.95 264.068C255.636 264.24 255.274 264.308 254.919 264.259C254.272 264.234 253.642 264.179 252.982 264.093C252.845 264.088 252.711 264.045 252.595 263.97C252.517 263.885 252.458 263.785 252.421 263.675C252.385 263.566 252.371 263.45 252.382 263.335C252.331 262.69 252.357 262.041 252.459 261.402C252.566 260.76 252.896 260.176 253.391 259.753C253.885 259.37 255.383 258.233 255.945 258.961C256.094 259.157 256.035 259.425 256.243 259.587C256.452 259.749 256.78 259.66 257.018 259.689C257.582 259.779 258.108 260.029 258.533 260.409Z" fill="#3F3D56"/>
<path d="M229.77 260.631C229.242 261.057 228.778 261.751 229.025 262.385C229.225 262.901 229.808 263.148 230.349 263.271C230.901 263.333 231.429 263.532 231.885 263.851C232.031 264.015 232.187 264.168 232.354 264.311C232.667 264.48 233.026 264.547 233.38 264.502C234.027 264.477 234.657 264.421 235.316 264.332C235.454 264.327 235.588 264.284 235.704 264.208C235.783 264.124 235.843 264.024 235.88 263.914C235.917 263.805 235.931 263.689 235.921 263.574C235.969 262.93 235.942 262.282 235.84 261.644C235.735 261 235.405 260.414 234.908 259.992C234.418 259.609 232.92 258.471 232.354 259.2C232.205 259.396 232.264 259.668 232.051 259.826C231.839 259.983 231.519 259.898 231.277 259.928C230.718 260.016 230.196 260.259 229.77 260.631Z" fill="#3F3D56"/>
<path d="M237.006 215.186C235.087 220.723 233.222 226.452 233.367 232.325C233.46 235.881 234.218 239.8 232.171 242.717C231.879 243.065 231.647 243.459 231.485 243.884C231.323 244.455 231.485 245.06 231.587 245.647C231.971 248.203 230.596 250.699 230.498 253.28C230.487 254.075 230.538 254.869 230.651 255.656L231.183 260.205C231.362 261.764 233.371 262.403 234.921 262.62C235.649 261.75 236.107 260.685 236.236 259.557C236.368 258.706 236.389 257.824 236.44 256.959C236.572 254.745 236.891 252.547 237.206 250.354L237.632 247.53C237.768 246.601 237.9 245.673 238.058 244.744C238.853 239.731 240.082 234.796 241.732 229.995C242.093 228.96 242.711 227.755 243.8 227.725L244.452 228.977C245.303 230.566 245.818 232.338 246.465 234.011C247.317 236.213 247.023 238.777 248.168 240.852C248.355 241.192 248.594 241.52 248.73 241.878C248.929 242.426 249.047 243 249.079 243.582L249.832 251.197C250.173 254.625 250.535 258.148 252.08 261.227C252.233 261.595 252.478 261.918 252.791 262.164C253.421 262.59 254.302 262.373 254.919 261.93C255.408 261.57 255.798 261.095 256.055 260.546C256.313 259.997 256.428 259.392 256.392 258.787C256.342 258.453 256.328 258.114 256.35 257.777C256.44 257.438 256.557 257.106 256.699 256.785C257.193 255.286 256.15 253.761 255.779 252.228C255.29 250.183 256.018 248.045 255.89 245.945C255.686 242.649 253.383 239.557 253.991 236.316C254.481 233.722 254.064 231.056 253.604 228.458L251.88 218.789C251.608 217.265 251.199 215.544 249.841 214.799C249.063 214.45 248.209 214.304 247.359 214.373C243.839 214.373 240.476 214.863 237.006 215.186Z" fill="#3F3D56"/>
<path d="M267.741 191.621C266.502 191.746 265.253 191.487 264.165 190.88C263.752 190.605 263.311 190.373 262.85 190.19C261.999 189.913 261.062 190.156 260.168 190.288C258.701 190.5 257.205 190.399 255.779 189.989C254.289 189.564 252.799 188.793 251.267 189.138C250.548 189.295 249.896 189.691 249.168 189.806C248.6 189.864 248.025 189.834 247.466 189.717L242.613 188.959C241.518 188.739 240.399 188.659 239.284 188.72C238.44 188.878 237.587 188.984 236.73 189.04C235.832 189.04 234.946 188.699 234.048 188.759C233.517 188.819 232.995 188.938 232.49 189.112C230.158 189.794 227.737 190.117 225.308 190.07C223.372 190.197 221.506 190.845 219.906 191.944C219.796 192.005 219.701 192.09 219.627 192.193C219.553 192.295 219.504 192.412 219.481 192.536C219.495 192.652 219.532 192.763 219.59 192.864C219.647 192.965 219.725 193.054 219.817 193.124C220.464 193.78 221.149 194.453 222.026 194.734C222.571 194.862 223.122 194.956 223.678 195.015C225.019 195.262 226.258 196.033 227.62 196.033C228.561 196.033 229.484 195.658 230.412 195.79C231.69 195.965 232.605 196.996 233.392 198.001C234.054 198.786 234.554 199.695 234.861 200.676C235.159 201.86 234.972 203.188 235.606 204.232C235.765 204.445 235.889 204.682 235.972 204.935C235.986 205.335 235.896 205.733 235.712 206.089C235.176 207.729 236.351 209.462 236.227 211.2C236.168 212.022 235.802 212.805 235.763 213.627C235.704 214.696 236.134 215.885 235.538 216.771C237.837 215.611 240.393 215.053 242.966 215.148C243.394 215.158 243.821 215.198 244.243 215.267C245.064 215.435 245.872 215.659 246.661 215.94C248.44 216.507 250.399 216.911 252.152 216.264C252.578 215.229 252.506 214.087 252.374 212.98C252.242 211.873 251.969 210.782 251.803 209.679C251.674 208.793 251.6 207.9 251.582 207.005C251.536 206.121 251.599 205.236 251.769 204.368C251.964 203.607 252.231 202.865 252.565 202.153C253.387 200.084 254.384 198.09 255.545 196.191C257.29 196.05 258.98 195.901 260.726 195.765C261.142 195.742 261.557 195.686 261.965 195.599C262.484 195.421 263.013 195.27 263.548 195.147C263.749 195.136 263.946 195.096 264.136 195.028C264.519 194.853 264.757 194.368 265.174 194.355C265.333 194.374 265.493 194.374 265.651 194.355C265.838 194.3 265.928 194.091 266.077 193.929C266.341 193.635 266.771 193.576 267.115 193.388C267.405 193.209 267.625 192.936 267.739 192.614C267.852 192.293 267.853 191.943 267.741 191.621Z" fill="url(#paint3_linear)"/>
<path d="M246.41 183.622C246.546 183.729 246.711 183.792 246.884 183.803C247.056 183.813 247.228 183.771 247.376 183.682C247.562 183.507 247.687 183.277 247.734 183.026C247.887 182.494 248.01 181.953 248.104 181.407C248.129 181.17 248.201 180.939 248.317 180.73C248.628 180.253 249.3 180.228 249.824 180.01C250.471 179.66 251.007 179.135 251.369 178.494L251.075 178.435L251.352 178.009C251.286 177.969 251.231 177.914 251.19 177.849C251.149 177.784 251.124 177.71 251.116 177.634C251.109 177.557 251.119 177.48 251.147 177.409C251.175 177.337 251.219 177.272 251.275 177.221C251.027 177.088 250.748 177.025 250.467 177.038C250.556 176.876 250.411 176.671 250.237 176.612C250.056 176.574 249.871 176.564 249.688 176.582C249.416 176.56 249.149 176.496 248.896 176.394C247.082 175.773 245.116 175.223 243.268 175.747C242.452 176 241.689 176.399 241.016 176.927C240.366 177.293 239.88 177.893 239.657 178.606C239.435 179.318 239.493 180.089 239.82 180.76C240.099 181.452 240.299 182.174 240.416 182.911C240.444 183.603 240.366 184.295 240.186 184.964C240.69 185.126 241.212 185.227 241.74 185.266C242.272 185.307 242.8 185.156 243.23 184.84C243.656 184.474 243.894 183.908 244.243 183.448C244.377 183.245 244.56 183.079 244.775 182.966C244.99 182.853 245.23 182.796 245.473 182.8C245.946 182.873 246.031 183.354 246.41 183.622Z" fill="#3F3D56"/>
<path d="M234.099 264.068H229.114C228.967 264.098 228.834 264.177 228.739 264.294C228.643 264.41 228.591 264.556 228.591 264.707C228.591 264.857 228.643 265.003 228.739 265.12C228.834 265.236 228.967 265.316 229.114 265.346H230.11V273.808H213.053C213.013 273.742 212.958 273.686 212.892 273.646C212.826 273.606 212.751 273.583 212.674 273.578H207.693C207.546 273.608 207.413 273.688 207.318 273.804C207.223 273.921 207.171 274.067 207.171 274.217C207.171 274.368 207.223 274.514 207.318 274.63C207.413 274.747 207.546 274.826 207.693 274.856H208.69V283.549H192.22C192.205 283.431 192.151 283.321 192.066 283.237C191.981 283.154 191.87 283.101 191.751 283.089H186.775C186.624 283.114 186.486 283.192 186.387 283.309C186.287 283.426 186.233 283.574 186.233 283.728C186.233 283.881 186.287 284.03 186.387 284.147C186.486 284.264 186.624 284.342 186.775 284.367H187.273V293.311H170.531C170.469 293.275 170.398 293.256 170.327 293.255H165.346C165.198 293.285 165.066 293.365 164.97 293.481C164.875 293.598 164.823 293.744 164.823 293.894C164.823 294.045 164.875 294.191 164.97 294.307C165.066 294.424 165.198 294.503 165.346 294.533H165.844V303.051H149.315C149.279 302.967 149.22 302.895 149.144 302.844C149.069 302.793 148.98 302.764 148.889 302.762H143.908C143.761 302.791 143.628 302.871 143.533 302.988C143.437 303.104 143.385 303.25 143.385 303.401C143.385 303.551 143.437 303.697 143.533 303.813C143.628 303.93 143.761 304.01 143.908 304.039H144.406V313.473H257.014V264.068H234.099Z" fill="#3F3D56"/>
<path opacity="0.1" d="M73.6527 100.647C73.1608 99.9972 72.603 99.4006 71.9882 98.8663C71.8213 98.721 71.6903 98.5389 71.6056 98.3344C71.5208 98.1299 71.4847 97.9086 71.4999 97.6877C71.5152 97.4669 71.5815 97.2526 71.6935 97.0617C71.8056 96.8708 71.9604 96.7085 72.1457 96.5876C72.3501 96.4556 72.5501 96.3151 72.7502 96.1617C75.0745 94.3942 76.2494 92.0219 75.3682 90.8592C74.487 89.6964 71.8861 90.1905 69.5618 91.958C69.2931 92.1578 69.0359 92.3725 68.7913 92.6011C68.6278 92.7482 68.4325 92.8555 68.2208 92.9146C68.009 92.9737 67.7864 92.983 67.5704 92.9417C67.3544 92.9005 67.1509 92.8099 66.9758 92.6769C66.8006 92.5439 66.6585 92.3722 66.5607 92.1752C66.2341 91.5346 65.8509 90.9246 65.4156 90.3523C63.3467 87.6265 60.5712 86.2508 59.2133 87.2815C57.8554 88.3122 58.4258 91.3618 60.4904 94.0961C60.894 94.6303 61.3427 95.129 61.8313 95.5868C61.9928 95.744 62.1151 95.937 62.1884 96.1502C62.2616 96.3634 62.2838 96.5908 62.2532 96.8142C62.2225 97.0375 62.1399 97.2506 62.0119 97.4361C61.8839 97.6217 61.7141 97.7745 61.5163 97.8824C58.9621 99.3433 57.5191 101.545 58.2427 102.81C58.9664 104.075 61.6142 103.918 64.147 102.461C64.5395 102.233 64.9176 101.981 65.2794 101.707C65.4497 101.577 65.6468 101.487 65.8564 101.444C66.0659 101.4 66.2826 101.403 66.4906 101.454C66.6986 101.504 66.8927 101.601 67.0587 101.736C67.2248 101.871 67.3586 102.042 67.4504 102.235C67.7957 102.99 68.2241 103.705 68.7274 104.365C70.792 107.091 73.5718 108.466 74.9297 107.436C76.2877 106.405 75.7173 103.377 73.6527 100.647Z" fill="#6897DA"/>
<path opacity="0.1" d="M375.176 174.248C375.657 173.59 376.066 172.883 376.398 172.14C376.488 171.938 376.623 171.759 376.793 171.618C376.963 171.478 377.164 171.379 377.379 171.329C377.595 171.279 377.818 171.281 378.033 171.333C378.248 171.385 378.447 171.486 378.616 171.629C378.803 171.782 378.999 171.931 379.199 172.08C381.566 173.784 384.18 174.21 385.031 173.038C385.882 171.867 384.657 169.512 382.29 167.8C382.006 167.598 381.722 167.415 381.438 167.25C381.25 167.136 381.091 166.98 380.973 166.794C380.856 166.607 380.783 166.397 380.76 166.178C380.737 165.959 380.766 165.737 380.843 165.531C380.92 165.325 381.043 165.139 381.204 164.989C381.722 164.491 382.192 163.946 382.609 163.362C384.614 160.589 385.116 157.531 383.737 156.547C382.358 155.563 379.608 156.973 377.603 159.763C377.211 160.301 376.865 160.871 376.568 161.466C376.465 161.667 376.317 161.84 376.134 161.973C375.952 162.105 375.741 162.193 375.519 162.229C375.297 162.265 375.069 162.248 374.854 162.18C374.639 162.112 374.443 161.995 374.282 161.837C372.154 159.839 369.6 159.081 368.617 160.133C367.633 161.185 368.544 163.681 370.677 165.67C371.008 165.977 371.36 166.261 371.728 166.522C371.902 166.647 372.045 166.81 372.147 166.998C372.25 167.186 372.309 167.395 372.321 167.608C372.333 167.822 372.297 168.036 372.216 168.234C372.135 168.432 372.01 168.61 371.852 168.754C371.227 169.314 370.666 169.941 370.179 170.623C368.174 173.396 367.672 176.454 369.055 177.438C370.439 178.422 373.171 177.025 375.176 174.248Z" fill="#6897DA"/>
</g>
<defs>
<filter id="filter0_d" x="-4" y="-2" width="505" height="330" filterUnits="userSpaceOnUse" color-interpolation-filters="sRGB">
<feFlood flood-opacity="0" result="BackgroundImageFix"/>
<feColorMatrix in="SourceAlpha" type="matrix" values="0 0 0 0 0 0 0 0 0 0 0 0 0 0 0 0 0 0 127 0"/>
<feOffset dy="2"/>
<feGaussianBlur stdDeviation="2"/>
<feColorMatrix type="matrix" values="0 0 0 0 0 0 0 0 0 0 0 0 0 0 0 0 0 0 0.25 0"/>
<feBlend mode="normal" in2="BackgroundImageFix" result="effect1_dropShadow"/>
<feBlend mode="normal" in="SourceGraphic" in2="effect1_dropShadow" result="shape"/>
</filter>
<linearGradient id="paint0_linear" x1="243.464" y1="312.068" x2="243.464" y2="48.4301" gradientUnits="userSpaceOnUse">
<stop stop-color="#808080" stop-opacity="0.25"/>
<stop offset="0.54" stop-color="#808080" stop-opacity="0.12"/>
<stop offset="1" stop-color="#808080" stop-opacity="0.1"/>
</linearGradient>
<linearGradient id="paint1_linear" x1="-2318.27" y1="1040.92" x2="-2302.95" y2="1040.92" gradientUnits="userSpaceOnUse">
<stop stop-color="#808080" stop-opacity="0.25"/>
<stop offset="0.54" stop-color="#808080" stop-opacity="0.12"/>
<stop offset="1" stop-color="#808080" stop-opacity="0.1"/>
</linearGradient>
<linearGradient id="paint2_linear" x1="28737" y1="62132.3" x2="28737" y2="43369.9" gradientUnits="userSpaceOnUse">
<stop stop-color="#808080" stop-opacity="0.25"/>
<stop offset="0.54" stop-color="#808080" stop-opacity="0.12"/>
<stop offset="1" stop-color="#808080" stop-opacity="0.1"/>
</linearGradient>
<linearGradient id="paint3_linear" x1="261" y1="217" x2="226" y2="181.5" gradientUnits="userSpaceOnUse">
<stop stop-color="#7079D2"/>
<stop offset="1" stop-color="#C470B2"/>
</linearGradient>
</defs>
</svg>
