<svg width="608" height="446" viewBox="0 0 608 446" fill="none" xmlns="http://www.w3.org/2000/svg">
<g clip-path="url(#clip0)">
<path d="M37.712 119.56C50.2722 119.56 60.4543 110.03 60.4543 98.2744C60.4543 86.5188 50.2722 76.989 37.712 76.989C25.1517 76.989 14.9696 86.5188 14.9696 98.2744C14.9696 110.03 25.1517 119.56 37.712 119.56Z" fill="#2F2E41"/>
<path d="M103.924 230.877L109.681 238.931C109.681 238.931 137.318 244.683 126.954 253.313C116.59 261.942 101.621 245.259 101.621 245.259L93.5603 234.904L103.924 230.877Z" fill="#FFB8B8"/>
<path d="M73.9846 139.407C73.9846 139.407 81.4694 139.407 83.1967 149.762C84.9239 160.117 86.6512 194.634 86.6512 194.634C86.6512 194.634 110.833 226.274 106.803 230.301C102.772 234.328 98.1663 241.807 95.2876 240.656C92.4088 239.506 67.6513 205.564 67.6513 205.564L73.9846 139.407Z" fill="#E6E6E6"/>
<path d="M50.9544 110.068C50.9544 110.068 51.5301 132.504 58.4392 133.654C65.3483 134.805 63.0452 142.283 63.0452 142.283C63.0452 142.283 40.5908 155.515 25.6211 142.283L22.7423 135.38C22.7423 135.38 33.1059 127.901 28.4999 117.546L50.9544 110.068Z" fill="#FFB8B8"/>
<path d="M89.53 248.135C89.53 248.135 123.5 311.416 110.833 330.976C98.1663 350.535 79.1664 390.805 76.2876 390.805C73.4088 390.805 57.2877 382.751 58.4392 377.573C59.5907 372.396 76.8634 333.852 81.4694 330.4C86.0754 326.949 83.7724 317.744 83.1967 317.169C82.6209 316.594 63.621 286.104 63.621 286.104C63.621 286.104 64.1968 334.427 61.8937 341.906C59.5907 349.385 62.4695 402.886 59.5907 405.187C56.7119 407.488 43.4695 411.515 41.1665 408.063C38.8635 404.612 31.9544 352.261 36.5605 340.18L27.9242 257.34L89.53 248.135Z" fill="#2F2E41"/>
<path d="M58.4392 401.735L72.8331 428.198C72.8331 428.198 93.5603 443.156 79.1664 445.457C64.7726 447.758 56.1362 442.005 56.1362 442.005L43.4696 432.8V406.338L58.4392 401.735Z" fill="#2F2E41"/>
<path d="M78.0149 386.778L70.5301 404.612C70.5301 404.612 67.6513 412.09 70.5301 413.816C73.4088 415.542 81.4694 425.897 76.2876 427.048C75.2452 427.252 74.1858 427.357 73.1236 427.362C68.8087 427.434 64.5238 426.634 60.5266 425.009C56.5294 423.383 52.9025 420.967 49.8644 417.905L45.1968 413.241C45.1968 413.241 61.1856 376.453 60.9639 376.725C60.7422 376.998 78.0149 386.778 78.0149 386.778Z" fill="#2F2E41"/>
<path d="M36.5605 123.874C47.3718 123.874 56.1362 115.117 56.1362 104.315C56.1362 93.5124 47.3718 84.7553 36.5605 84.7553C25.7491 84.7553 16.9848 93.5124 16.9848 104.315C16.9848 115.117 25.7491 123.874 36.5605 123.874Z" fill="#FFB8B8"/>
<path d="M25.3332 131.641L31.3787 137.681C31.3787 137.681 49.8029 144.584 58.4392 137.681C58.4392 137.681 55.2725 131.065 55.2725 131.641C55.2725 132.216 80.3179 135.955 82.6209 146.31C84.9239 156.665 80.8936 174.499 80.8936 174.499C80.8936 174.499 97.0148 250.436 90.6815 252.162C84.3482 253.888 25.0453 268.27 25.6211 257.34C26.1968 246.409 21.015 201.537 21.015 201.537L0.863598 162.994C0.863598 162.994 3.74237 150.337 10.6514 146.31C17.5605 142.283 25.3332 131.641 25.3332 131.641Z" fill="#CACACA"/>
<path d="M50.9544 244.108L58.4392 248.71C58.4392 248.71 87.227 268.27 72.2573 271.722C57.2877 275.173 48.6513 257.915 48.6513 257.915L42.8938 251.012L50.9544 244.108Z" fill="#FFB8B8"/>
<path opacity="0.1" d="M8.34846 159.542L3.16666 164.719C3.16666 164.719 -0.287869 213.043 6.6212 222.823C13.5303 232.603 45.1968 259.065 46.9241 257.34C48.6513 255.614 59.5907 246.985 57.2877 245.834C54.9847 244.683 24.3643 212.715 24.3643 212.715L26.7726 168.171L8.34846 159.542Z" fill="white"/>
<path d="M6.04544 157.816L0.863634 162.994C0.863634 162.994 -2.5909 211.317 4.31817 221.097C11.2272 230.877 42.8938 257.34 44.6211 255.614C46.3483 253.888 57.2877 245.259 54.9847 244.108C52.6816 242.958 22.0613 210.99 22.0613 210.99L24.4696 166.445L6.04544 157.816Z" fill="#E6E6E6"/>
<path d="M44.6566 76.5317C44.6566 76.5317 51.3108 74.1139 60.3849 79.2517L55.5454 80.4606C55.5454 80.4606 62.8046 81.065 63.712 90.736H60.3849C60.3849 90.736 62.5022 99.1981 60.3849 101.616L59.0238 99.047L55.0917 106.905L54.1843 102.976L52.3695 103.58L51.1596 97.2337C51.1596 97.2337 48.1349 101.767 45.7152 102.069V98.1404C45.7152 98.1404 39.0609 105.696 36.9436 105.394L39.9683 101.163L35.7337 102.069L37.5485 99.047L26.6597 102.069L29.0794 99.047L21.5177 101.465L17.8881 102.976C17.8881 102.976 12.7461 91.1893 20.0054 83.0294C27.2646 74.8695 37.851 73.0562 44.6566 76.5317Z" fill="#2F2E41"/>
<path d="M592.764 47.1982H151.922V329.301H592.764V47.1982Z" fill="#E6E6E6"/>
<path d="M580.158 82.5808H164.527V312.611H580.158V82.5808Z" fill="white"/>
<path d="M592.575 46.9484H151.733V65.6616H592.575V46.9484Z" fill="url(#paint0_linear)"/>
<path d="M165.651 59.9839C167.568 59.9839 169.122 58.4311 169.122 56.5156C169.122 54.6001 167.568 53.0472 165.651 53.0472C163.734 53.0472 162.18 54.6001 162.18 56.5156C162.18 58.4311 163.734 59.9839 165.651 59.9839Z" fill="white"/>
<path d="M178.827 59.9839C180.744 59.9839 182.298 58.4311 182.298 56.5156C182.298 54.6001 180.744 53.0472 178.827 53.0472C176.91 53.0472 175.355 54.6001 175.355 56.5156C175.355 58.4311 176.91 59.9839 178.827 59.9839Z" fill="white"/>
<path d="M192.003 59.9839C193.92 59.9839 195.474 58.4311 195.474 56.5156C195.474 54.6001 193.92 53.0472 192.003 53.0472C190.085 53.0472 188.531 54.6001 188.531 56.5156C188.531 58.4311 190.085 59.9839 192.003 59.9839Z" fill="white"/>
<path d="M309.091 106.448H202.293V288.744H309.091V106.448Z" fill="#E6E6E6"/>
<path d="M416.524 106.448H327.526V156.627H416.524V106.448Z" fill="url(#paint1_linear)"/>
<path d="M416.524 170.601H327.526V224.591H416.524V170.601Z" fill="#E6E6E6"/>
<path d="M416.524 238.565H327.526V288.744H416.524V238.565Z" fill="#E6E6E6"/>
<path d="M542.392 106.448H435.595V185.892H542.392V106.448Z" fill="#E6E6E6"/>
<path d="M542.392 209.3H435.595V288.744H542.392V209.3Z" fill="url(#paint2_linear)"/>
<path d="M372.942 129.131L371.548 128.761L401.971 14.4076H578.44V15.8484H403.079L372.942 129.131Z" fill="#3F3D56"/>
<path d="M592.86 30.2556C589.865 30.2556 586.938 29.3684 584.448 27.7061C581.958 26.0438 580.018 23.6812 578.872 20.917C577.726 18.1527 577.426 15.111 578.01 12.1765C578.595 9.24201 580.037 6.54649 582.154 4.43083C584.271 2.31517 586.969 0.874391 589.906 0.290682C592.843 -0.293027 595.887 0.00655666 598.654 1.15154C601.42 2.29653 603.785 4.23549 605.448 6.72324C607.112 9.211 608 12.1358 608 15.1278C607.995 19.1385 606.399 22.9837 603.56 25.8197C600.722 28.6558 596.874 30.251 592.86 30.2556ZM592.86 1.44075C590.15 1.44075 587.502 2.24348 585.249 3.74743C582.997 5.25138 581.241 7.38901 580.204 9.89C579.167 12.391 578.896 15.143 579.425 17.798C579.953 20.453 581.258 22.8918 583.174 24.806C585.089 26.7202 587.53 28.0238 590.187 28.5519C592.845 29.08 595.599 28.8089 598.102 27.773C600.605 26.7371 602.744 24.9827 604.249 22.7319C605.755 20.4811 606.558 17.8348 606.558 15.1278C606.554 11.499 605.109 8.02008 602.541 5.45415C599.973 2.88823 596.492 1.44487 592.86 1.44075Z" fill="#3F3D56"/>
<path d="M592.86 20.8907C596.045 20.8907 598.627 18.3106 598.627 15.1278C598.627 11.945 596.045 9.36481 592.86 9.36481C589.674 9.36481 587.092 11.945 587.092 15.1278C587.092 18.3106 589.674 20.8907 592.86 20.8907Z" fill="#F1F1F1"/>
<path d="M460.757 363.067H284.287V361.626H459.648L489.786 248.343L491.18 248.713L460.757 363.067Z" fill="#3F3D56"/>
<path d="M269.868 377.474C266.873 377.474 263.946 376.587 261.456 374.925C258.966 373.263 257.026 370.9 255.88 368.136C254.734 365.372 254.434 362.33 255.018 359.395C255.602 356.461 257.044 353.765 259.162 351.65C261.279 349.534 263.977 348.093 266.914 347.509C269.851 346.926 272.895 347.225 275.661 348.37C278.428 349.515 280.793 351.454 282.456 353.942C284.12 356.43 285.008 359.355 285.008 362.347C285.003 366.357 283.407 370.203 280.568 373.039C277.73 375.875 273.882 377.47 269.868 377.474ZM269.868 348.66C267.158 348.66 264.51 349.462 262.257 350.966C260.004 352.47 258.249 354.608 257.212 357.109C256.175 359.61 255.904 362.362 256.432 365.017C256.961 367.672 258.266 370.111 260.181 372.025C262.097 373.939 264.538 375.243 267.195 375.771C269.852 376.299 272.607 376.028 275.11 374.992C277.613 373.956 279.752 372.202 281.257 369.951C282.762 367.7 283.566 365.054 283.566 362.347C283.562 358.718 282.117 355.239 279.549 352.673C276.981 350.107 273.499 348.664 269.868 348.66Z" fill="#3F3D56"/>
<path d="M269.867 368.11C273.053 368.11 275.635 365.529 275.635 362.347C275.635 359.164 273.053 356.584 269.867 356.584C266.682 356.584 264.1 359.164 264.1 362.347C264.1 365.529 266.682 368.11 269.867 368.11Z" fill="#F1F1F1"/>
</g>
<defs>
<linearGradient id="paint0_linear" x1="152" y1="46.9999" x2="593" y2="66.0001" gradientUnits="userSpaceOnUse">
<stop stop-color="#5CA5E0"/>
<stop offset="1" stop-color="#B672B7"/>
</linearGradient>
<linearGradient id="paint1_linear" x1="427" y1="101" x2="316" y2="164.5" gradientUnits="userSpaceOnUse">
<stop stop-color="#577BDC"/>
<stop offset="1" stop-color="#BC71B5"/>
</linearGradient>
<linearGradient id="paint2_linear" x1="430" y1="202" x2="542" y2="300" gradientUnits="userSpaceOnUse">
<stop stop-color="#7A93D2"/>
<stop offset="1" stop-color="#9975C2"/>
</linearGradient>
<clipPath id="clip0">
<rect width="608" height="446" fill="white"/>
</clipPath>
</defs>
</svg>
