<svg width="28" height="20" viewBox="0 0 28 20" fill="none" xmlns="http://www.w3.org/2000/svg">
<path fill-rule="evenodd" clip-rule="evenodd" d="M26.5309 17.6602C27.3851 16.1964 27.75 13.8361 27.75 9.9965C27.75 6.17223 27.3885 3.82561 26.5253 2.32254C25.6602 0.761704 24.6341 0.26629 22.5979 0.147376C21.2078 0.0531528 17.7528 0 14.0033 0C10.2458 0 6.78931 0.053133 5.38876 0.148115C3.3639 0.266573 2.33764 0.763081 1.46491 2.32825C0.61423 3.82613 0.25 6.18422 0.25 10.0105C0.25 13.8151 0.615993 16.185 1.47239 17.678C2.33377 19.223 3.34366 19.7135 5.38576 19.8569C6.85345 19.9428 10.5055 20 14.0033 20C17.4933 20 21.1436 19.9428 22.5979 19.8579C24.6587 19.7135 25.6685 19.2222 26.5309 17.6602ZM22.4405 2.64239C23.7142 2.71683 23.9504 2.83131 24.3542 3.56205C24.9419 4.57999 25.25 6.57214 25.25 10.0105C25.25 13.4228 24.9403 15.426 24.3569 16.4262C23.9518 17.1593 23.7172 17.2734 22.4376 17.3631C21.0612 17.4434 17.4462 17.5 14.0033 17.5C10.5527 17.5 6.93593 17.4434 5.54629 17.3621C4.28251 17.2733 4.04456 17.1577 3.64842 16.4473C3.06108 15.4232 2.75 13.4088 2.75 9.9965C2.75 6.58624 3.05942 4.58298 3.64362 3.55428C4.04593 2.83284 4.28555 2.71691 5.54637 2.64311C6.88135 2.55263 10.3053 2.5 14.0033 2.5C17.6934 2.5 21.1158 2.55265 22.4405 2.64239ZM11.5 6.25L17.75 10L11.5 13.75V6.25Z" fill="#1A1B1E"/>
</svg>
